ISO-10303-21;
HEADER;
FILE_DESCRIPTION (( 'STEP AP203' ),
    '1' );
FILE_NAME ('2040 ANGLE BRACKET-FLAT 01 2024.STEP',
    '2024-12-31T05:55:13',
    ( '' ),
    ( '' ),
    'SwSTEP 2.0',
    'SolidWorks 2024',
    '' );
FILE_SCHEMA (( 'CONFIG_CONTROL_DESIGN' ));
ENDSEC;

DATA;
#1 = ORIENTED_EDGE ( 'NONE', *, *, #769, .F. ) ;
#2 = ADVANCED_FACE ( 'NONE', ( #329 ), #71, .F. ) ;
#3 = CIRCLE ( 'NONE', #246, 2.500000000000000444 ) ;
#4 = VECTOR ( 'NONE', #101, 1000.000000000000000 ) ;
#5 = ORIENTED_EDGE ( 'NONE', *, *, #904, .F. ) ;
#6 = VERTEX_POINT ( 'NONE', #1054 ) ;
#7 = CARTESIAN_POINT ( 'NONE',  ( 7.500000000000268230, 29.99999999999997158, 4.000000000000000000 ) ) ;
#8 = CARTESIAN_POINT ( 'NONE',  ( 80.00000000000000000, -4.898587196589411448E-15, 4.000000000000000000 ) ) ;
#9 = ORIENTED_EDGE ( 'NONE', *, *, #989, .F. ) ;
#10 = EDGE_CURVE ( 'NONE', #502, #159, #430, .T. ) ;
#11 = APPROVAL ( #290, 'UNSPECIFIED' ) ;
#12 = DIRECTION ( 'NONE',  ( 0.000000000000000000, 0.000000000000000000, 1.000000000000000000 ) ) ;
#13 = CARTESIAN_POINT ( 'NONE',  ( 30.00000000000001421, 9.999999999999989342, 0.000000000000000000 ) ) ;
#14 = VERTEX_POINT ( 'NONE', #241 ) ;
#15 = EDGE_CURVE ( 'NONE', #233, #602, #254, .T. ) ;
#16 = DIRECTION ( 'NONE',  ( -1.000000000000000000, 0.000000000000000000, -0.000000000000000000 ) ) ;
#17 = DIRECTION ( 'NONE',  ( 1.000000000000000000, 0.000000000000000000, 0.000000000000000000 ) ) ;
#18 = CIRCLE ( 'NONE', #679, 2.500000000000002220 ) ;
#19 = CARTESIAN_POINT ( 'NONE',  ( 0.000000000000000000, 0.000000000000000000, 4.000000000000000000 ) ) ;
#20 = AXIS2_PLACEMENT_3D ( 'NONE', #239, #880, #972 ) ;
#21 = AXIS2_PLACEMENT_3D ( 'NONE', #857, #398, #47 ) ;
#22 = EDGE_CURVE ( 'NONE', #675, #894, #714, .T. ) ;
#23 = CC_DESIGN_APPROVAL ( #11, ( #376 ) ) ;
#24 = DIRECTION ( 'NONE',  ( 1.000000000000000000, 0.000000000000000000, 0.000000000000000000 ) ) ;
#25 = LINE ( 'NONE', #8, #374 ) ;
#26 = DIRECTION ( 'NONE',  ( 0.000000000000000000, 0.000000000000000000, 1.000000000000000000 ) ) ;
#27 = VERTEX_POINT ( 'NONE', #1114 ) ;
#28 = DIRECTION ( 'NONE',  ( -1.000000000000000000, 0.000000000000000000, 0.000000000000000000 ) ) ;
#29 = FACE_BOUND ( 'NONE', #1152, .T. ) ;
#30 = ORIENTED_EDGE ( 'NONE', *, *, #891, .T. ) ;
#31 = FACE_OUTER_BOUND ( 'NONE', #720, .T. ) ;
#32 = CARTESIAN_POINT ( 'NONE',  ( 50.00000000000001421, 29.99999999999999645, 0.000000000000000000 ) ) ;
#33 = ORIENTED_EDGE ( 'NONE', *, *, #784, .F. ) ;
#34 = DIRECTION ( 'NONE',  ( 0.000000000000000000, 0.000000000000000000, 1.000000000000000000 ) ) ;
#35 = EDGE_CURVE ( 'NONE', #463, #221, #817, .T. ) ;
#36 = DIRECTION ( 'NONE',  ( 1.000000000000000000, 0.000000000000000000, 0.000000000000000000 ) ) ;
#37 = PERSON_AND_ORGANIZATION ( #970, #603 ) ;
#38 = VERTEX_POINT ( 'NONE', #927 ) ;
#39 = DIRECTION ( 'NONE',  ( -0.000000000000000000, -0.000000000000000000, -1.000000000000000000 ) ) ;
#40 = EDGE_CURVE ( 'NONE', #726, #384, #224, .T. ) ;
#41 = DIRECTION ( 'NONE',  ( -0.000000000000000000, -0.000000000000000000, -1.000000000000000000 ) ) ;
#42 = VECTOR ( 'NONE', #649, 1000.000000000000114 ) ;
#43 = DIRECTION ( 'NONE',  ( -0.000000000000000000, -0.000000000000000000, -1.000000000000000000 ) ) ;
#44 = CYLINDRICAL_SURFACE ( 'NONE', #414, 2.499999999999988454 ) ;
#45 = ORIENTED_EDGE ( 'NONE', *, *, #467, .T. ) ;
#46 = AXIS2_PLACEMENT_3D ( 'NONE', #509, #405, #1139 ) ;
#47 = DIRECTION ( 'NONE',  ( -1.000000000000000000, 0.000000000000000000, 0.000000000000000000 ) ) ;
#48 = CARTESIAN_POINT ( 'NONE',  ( 12.50000000000001421, 9.999999999999980460, 4.000000000000000000 ) ) ;
#49 = CARTESIAN_POINT ( 'NONE',  ( 0.000000000000000000, 0.000000000000000000, 0.000000000000000000 ) ) ;
#50 = ORIENTED_EDGE ( 'NONE', *, *, #494, .T. ) ;
#51 = CIRCLE ( 'NONE', #234, 2.500000000000000444 ) ;
#52 = EDGE_CURVE ( 'NONE', #894, #675, #549, .T. ) ;
#53 = DIRECTION ( 'NONE',  ( 0.000000000000000000, 0.000000000000000000, 1.000000000000000000 ) ) ;
#54 = EDGE_LOOP ( 'NONE', ( #88, #576, #971, #839 ) ) ;
#55 = DIRECTION ( 'NONE',  ( 0.000000000000000000, 0.000000000000000000, 1.000000000000000000 ) ) ;
#56 = LINE ( 'NONE', #685, #299 ) ;
#57 = DIRECTION ( 'NONE',  ( 0.000000000000000000, 0.000000000000000000, 1.000000000000000000 ) ) ;
#58 = VECTOR ( 'NONE', #569, 1000.000000000000000 ) ;
#59 = DIRECTION ( 'NONE',  ( 1.000000000000000000, 0.000000000000000000, 0.000000000000000000 ) ) ;
#60 = AXIS2_PLACEMENT_3D ( 'NONE', #710, #975, #59 ) ;
#61 = CARTESIAN_POINT ( 'NONE',  ( 72.50000000000001421, 10.00000000000000000, 4.000000000000000000 ) ) ;
#63 = DIRECTION ( 'NONE',  ( -1.000000000000000000, 0.000000000000000000, 0.000000000000000000 ) ) ;
#62 = DIRECTION ( 'NONE',  ( 1.000000000000000000, 0.000000000000000000, 0.000000000000000000 ) ) ;
#64 = ORIENTED_EDGE ( 'NONE', *, *, #322, .F. ) ;
#65 = CYLINDRICAL_SURFACE ( 'NONE', #680, 2.500000000000002220 ) ;
#66 = EDGE_CURVE ( 'NONE', #76, #1135, #51, .T. ) ;
#67 = EDGE_LOOP ( 'NONE', ( #805, #255, #5, #1040 ) ) ;
#68 = DIRECTION ( 'NONE',  ( 0.000000000000000000, 0.000000000000000000, 1.000000000000000000 ) ) ;
#69 = EDGE_LOOP ( 'NONE', ( #709, #83, #1081, #228 ) ) ;
#70 = CARTESIAN_POINT ( 'NONE',  ( 29.99999999999926459, 69.99999999999998579, 4.000000000000000000 ) ) ;
#71 = CYLINDRICAL_SURFACE ( 'NONE', #513, 2.500000000000000444 ) ;
#72 = ADVANCED_FACE ( 'NONE', ( #448 ), #343, .F. ) ;
#73 = DIRECTION ( 'NONE',  ( -0.000000000000000000, -0.000000000000000000, -1.000000000000000000 ) ) ;
#74 = ORIENTED_EDGE ( 'NONE', *, *, #304, .T. ) ;
#75 = VECTOR ( 'NONE', #850, 1000.000000000000000 ) ;
#76 = VERTEX_POINT ( 'NONE', #1059 ) ;
#77 = AXIS2_PLACEMENT_3D ( 'NONE', #19, #124, #1016 ) ;
#78 = CARTESIAN_POINT ( 'NONE',  ( 0.000000000000000000, 0.000000000000000000, 4.000000000000000000 ) ) ;
#79 = ORIENTED_EDGE ( 'NONE', *, *, #619, .F. ) ;
#80 = CARTESIAN_POINT ( 'NONE',  ( 67.50000000000002842, 10.00000000000000000, 0.000000000000000000 ) ) ;
#81 = DIRECTION ( 'NONE',  ( -1.000000000000000000, 0.000000000000000000, 0.000000000000000000 ) ) ;
#82 = ORIENTED_EDGE ( 'NONE', *, *, #150, .T. ) ;
#83 = ORIENTED_EDGE ( 'NONE', *, *, #322, .T. ) ;
#84 = AXIS2_PLACEMENT_3D ( 'NONE', #447, #429, #1080 ) ;
#85 = EDGE_CURVE ( 'NONE', #633, #726, #309, .T. ) ;
#86 = PLANE ( 'NONE',  #84 ) ;
#87 = DESIGN_CONTEXT ( 'detailed design', #623, 'design' ) ;
#88 = ORIENTED_EDGE ( 'NONE', *, *, #1065, .F. ) ;
#89 = EDGE_LOOP ( 'NONE', ( #411, #882 ) ) ;
#90 = ORIENTED_EDGE ( 'NONE', *, *, #585, .F. ) ;
#91 = AXIS2_PLACEMENT_3D ( 'NONE', #438, #900, #804 ) ;
#92 = CARTESIAN_POINT ( 'NONE',  ( 30.00000000000001421, 9.999999999999989342, 4.000000000000000000 ) ) ;
#93 = DIRECTION ( 'NONE',  ( -1.000000000000000000, 0.000000000000000000, 0.000000000000000000 ) ) ;
#94 = CARTESIAN_POINT ( 'NONE',  ( 10.00000000000050804, 49.99999999999997158, 4.000000000000000000 ) ) ;
#95 = ADVANCED_FACE ( 'NONE', ( #626 ), #512, .F. ) ;
#96 = DIRECTION ( 'NONE',  ( -0.000000000000000000, -0.000000000000000000, -1.000000000000000000 ) ) ;
#97 = DIRECTION ( 'NONE',  ( -0.000000000000000000, -0.000000000000000000, -1.000000000000000000 ) ) ;
#98 = AXIS2_PLACEMENT_3D ( 'NONE', #32, #364, #560 ) ;
#99 = FACE_OUTER_BOUND ( 'NONE', #67, .T. ) ;
#100 = EDGE_CURVE ( 'NONE', #457, #542, #1153, .T. ) ;
#101 = DIRECTION ( 'NONE',  ( 6.938893903907228378E-16, 1.000000000000000000, -0.000000000000000000 ) ) ;
#102 = CARTESIAN_POINT ( 'NONE',  ( 10.00000000000050804, 49.99999999999997158, 4.000000000000000000 ) ) ;
#103 = LINE ( 'NONE', #746, #444 ) ;
#104 = PRODUCT ( '2040 ANGLE BRACKET-FLAT 01 2024', '2040 ANGLE BRACKET-FLAT 01 2024', '', ( #331 ) ) ;
#105 = AXIS2_PLACEMENT_3D ( 'NONE', #546, #462, #282 ) ;
#106 = AXIS2_PLACEMENT_3D ( 'NONE', #676, #664, #574 ) ;
#107 = CARTESIAN_POINT ( 'NONE',  ( 40.00000000000000000, 80.00000000000051159, 4.000000000000000000 ) ) ;
#108 = ADVANCED_FACE ( 'NONE', ( #897 ), #528, .F. ) ;
#109 = ORIENTED_EDGE ( 'NONE', *, *, #244, .T. ) ;
#110 = PLANE ( 'NONE',  #741 ) ;
#111 = CIRCLE ( 'NONE', #945, 2.500000000000000444 ) ;
#112 = CARTESIAN_POINT ( 'NONE',  ( 70.00000000000001421, 29.99999999999998579, 0.000000000000000000 ) ) ;
#113 = CARTESIAN_POINT ( 'NONE',  ( 50.00000000000001421, 9.999999999999991118, 0.000000000000000000 ) ) ;
#114 = FACE_BOUND ( 'NONE', #492, .T. ) ;
#115 = DATE_AND_TIME ( #227, #266 ) ;
#116 = ORIENTED_EDGE ( 'NONE', *, *, #15, .T. ) ;
#117 = FACE_OUTER_BOUND ( 'NONE', #613, .T. ) ;
#118 = ORIENTED_EDGE ( 'NONE', *, *, #647, .T. ) ;
#119 = EDGE_CURVE ( 'NONE', #1061, #263, #722, .T. ) ;
#120 = DIRECTION ( 'NONE',  ( 1.000000000000000000, -6.123233995736763571E-17, -0.000000000000000000 ) ) ;
#121 = CARTESIAN_POINT ( 'NONE',  ( 10.00000000000050804, 49.99999999999997158, 0.000000000000000000 ) ) ;
#122 = EDGE_LOOP ( 'NONE', ( #1141, #1029, #696, #9 ) ) ;
#123 = ADVANCED_FACE ( 'NONE', ( #171 ), #86, .F. ) ;
#124 = DIRECTION ( 'NONE',  ( 0.000000000000000000, 0.000000000000000000, -1.000000000000000000 ) ) ;
#125 = CIRCLE ( 'NONE', #434, 2.499999999999988454 ) ;
#126 = ORIENTED_EDGE ( 'NONE', *, *, #494, .F. ) ;
#127 = AXIS2_PLACEMENT_3D ( 'NONE', #1033, #55, #845 ) ;
#128 = DIRECTION ( 'NONE',  ( -0.000000000000000000, -0.000000000000000000, -1.000000000000000000 ) ) ;
#129 = VERTEX_POINT ( 'NONE', #635 ) ;
#130 = EDGE_CURVE ( 'NONE', #384, #129, #1116, .T. ) ;
#131 = APPROVAL_DATE_TIME ( #1027, #458 ) ;
#132 = DIRECTION ( 'NONE',  ( 0.000000000000000000, 0.000000000000000000, 1.000000000000000000 ) ) ;
#133 = DIRECTION ( 'NONE',  ( 0.000000000000000000, 0.000000000000000000, 1.000000000000000000 ) ) ;
#134 = VERTEX_POINT ( 'NONE', #1013 ) ;
#135 = CARTESIAN_POINT ( 'NONE',  ( 32.50000000000001421, 30.00000000000000000, 4.000000000000000000 ) ) ;
#136 = DATE_AND_TIME ( #1118, #683 ) ;
#137 = EDGE_CURVE ( 'NONE', #1157, #1133, #761, .T. ) ;
#138 = ORIENTED_EDGE ( 'NONE', *, *, #168, .F. ) ;
#139 = LINE ( 'NONE', #1046, #906 ) ;
#140 = EDGE_LOOP ( 'NONE', ( #593, #656 ) ) ;
#141 =( NAMED_UNIT ( * ) PLANE_ANGLE_UNIT ( ) SI_UNIT ( $, .RADIAN. ) );
#142 = LINE ( 'NONE', #1024, #831 ) ;
#143 = EDGE_LOOP ( 'NONE', ( #595, #260, #941, #286 ) ) ;
#144 = AXIS2_PLACEMENT_3D ( 'NONE', #281, #1101, #645 ) ;
#145 = DIRECTION ( 'NONE',  ( 0.000000000000000000, 0.000000000000000000, 1.000000000000000000 ) ) ;
#146 = ORIENTED_EDGE ( 'NONE', *, *, #348, .F. ) ;
#147 = CARTESIAN_POINT ( 'NONE',  ( 40.00000000000000000, 80.00000000000051159, 4.000000000000000000 ) ) ;
#148 = EDGE_LOOP ( 'NONE', ( #789, #799, #82, #1060 ) ) ;
#149 = DIRECTION ( 'NONE',  ( -0.000000000000000000, -0.000000000000000000, -1.000000000000000000 ) ) ;
#150 = EDGE_CURVE ( 'NONE', #894, #463, #1009, .T. ) ;
#151 = LINE ( 'NONE', #49, #262 ) ;
#152 = EDGE_LOOP ( 'NONE', ( #347, #313 ) ) ;
#153 = CYLINDRICAL_SURFACE ( 'NONE', #827, 2.500000000000002220 ) ;
#154 = APPLICATION_PROTOCOL_DEFINITION ( 'international standard', 'config_control_design', 1994, #558 ) ;
#155 = VERTEX_POINT ( 'NONE', #728 ) ;
#156 = FACE_OUTER_BOUND ( 'NONE', #515, .T. ) ;
#157 = DIRECTION ( 'NONE',  ( -6.938893903907228378E-16, -1.000000000000000000, 0.000000000000000000 ) ) ;
#158 = DIRECTION ( 'NONE',  ( -0.000000000000000000, -0.000000000000000000, -1.000000000000000000 ) ) ;
#159 = VERTEX_POINT ( 'NONE', #456 ) ;
#160 = CARTESIAN_POINT ( 'NONE',  ( 30.00000000000001421, 30.00000000000000000, 4.000000000000000000 ) ) ;
#161 = VECTOR ( 'NONE', #321, 1000.000000000000000 ) ;
#162 = ORIENTED_EDGE ( 'NONE', *, *, #979, .T. ) ;
#163 = CIRCLE ( 'NONE', #721, 2.500000000000009326 ) ;
#164 = VERTEX_POINT ( 'NONE', #566 ) ;
#165 = AXIS2_PLACEMENT_3D ( 'NONE', #825, #377, #1096 ) ;
#166 = APPROVAL_PERSON_ORGANIZATION ( #662, #300, #1011 ) ;
#167 = DIRECTION ( 'NONE',  ( -0.000000000000000000, -0.000000000000000000, -1.000000000000000000 ) ) ;
#168 = EDGE_CURVE ( 'NONE', #1157, #553, #103, .T. ) ;
#169 = ORIENTED_EDGE ( 'NONE', *, *, #1007, .F. ) ;
#170 = MANIFOLD_SOLID_BREP ( 'Boss-Extrude1', #1062 ) ;
#171 = FACE_OUTER_BOUND ( 'NONE', #480, .T. ) ;
#172 = EDGE_LOOP ( 'NONE', ( #777, #308 ) ) ;
#173 = ORIENTED_EDGE ( 'NONE', *, *, #704, .F. ) ;
#174 = ORIENTED_EDGE ( 'NONE', *, *, #288, .T. ) ;
#175 = FACE_OUTER_BOUND ( 'NONE', #621, .T. ) ;
#176 = DIRECTION ( 'NONE',  ( -1.000000000000000000, 0.000000000000000000, 0.000000000000000000 ) ) ;
#177 = DIRECTION ( 'NONE',  ( 0.000000000000000000, 0.000000000000000000, 1.000000000000000000 ) ) ;
#178 = EDGE_LOOP ( 'NONE', ( #770, #561 ) ) ;
#179 = ADVANCED_FACE ( 'NONE', ( #912 ), #110, .F. ) ;
#180 = ORIENTED_EDGE ( 'NONE', *, *, #258, .F. ) ;
#181 = CIRCLE ( 'NONE', #413, 2.500000000000002220 ) ;
#182 = VECTOR ( 'NONE', #333, 1000.000000000000000 ) ;
#183 = LINE ( 'NONE', #78, #579 ) ;
#184 = CARTESIAN_POINT ( 'NONE',  ( 30.00000000000001421, 30.00000000000000000, 4.000000000000000000 ) ) ;
#185 = DIRECTION ( 'NONE',  ( -0.000000000000000000, -0.000000000000000000, -1.000000000000000000 ) ) ;
#186 = ORIENTED_EDGE ( 'NONE', *, *, #35, .T. ) ;
#187 = EDGE_CURVE ( 'NONE', #129, #384, #816, .T. ) ;
#188 = CARTESIAN_POINT ( 'NONE',  ( 47.50000000000001421, 9.999999999999991118, 0.000000000000000000 ) ) ;
#189 = CYLINDRICAL_SURFACE ( 'NONE', #21, 2.499999999999988454 ) ;
#190 = DIRECTION ( 'NONE',  ( -0.000000000000000000, -0.000000000000000000, -1.000000000000000000 ) ) ;
#191 = ORIENTED_EDGE ( 'NONE', *, *, #730, .T. ) ;
#192 = VECTOR ( 'NONE', #249, 1000.000000000000000 ) ;
#193 = EDGE_CURVE ( 'NONE', #476, #602, #731, .T. ) ;
#194 = CARTESIAN_POINT ( 'NONE',  ( 52.50000000000002132, 9.999999999999991118, 4.000000000000000000 ) ) ;
#195 = CARTESIAN_POINT ( 'NONE',  ( 50.00000000000001421, 29.99999999999999645, 0.000000000000000000 ) ) ;
#196 = DIRECTION ( 'NONE',  ( -1.000000000000000000, -0.000000000000000000, -0.000000000000000000 ) ) ;
#197 = DIRECTION ( 'NONE',  ( 1.000000000000000000, 0.000000000000000000, 0.000000000000000000 ) ) ;
#198 = CARTESIAN_POINT ( 'NONE',  ( 80.00000000000000000, -4.898587196589411448E-15, 0.000000000000000000 ) ) ;
#199 = COORDINATED_UNIVERSAL_TIME_OFFSET ( 8, 0, .BEHIND. ) ;
#200 = EDGE_CURVE ( 'NONE', #27, #451, #504, .T. ) ;
#201 = VECTOR ( 'NONE', #511, 1000.000000000000000 ) ;
#202 = VERTEX_POINT ( 'NONE', #371 ) ;
#203 = CARTESIAN_POINT ( 'NONE',  ( 70.00000000000001421, 29.99999999999998579, 4.000000000000000000 ) ) ;
#204 = DIRECTION ( 'NONE',  ( -0.000000000000000000, -0.000000000000000000, -1.000000000000000000 ) ) ;
#205 = CARTESIAN_POINT ( 'NONE',  ( 70.00000000000001421, 29.99999999999998579, 4.000000000000000000 ) ) ;
#206 = SECURITY_CLASSIFICATION_LEVEL ( 'unclassified' ) ;
#207 = CYLINDRICAL_SURFACE ( 'NONE', #344, 2.500000000000002220 ) ;
#208 = EDGE_LOOP ( 'NONE', ( #370, #191, #901, #146 ) ) ;
#209 = DIRECTION ( 'NONE',  ( -0.000000000000000000, -0.000000000000000000, -1.000000000000000000 ) ) ;
#210 = CALENDAR_DATE ( 2024, 30, 12 ) ;
#211 = DIRECTION ( 'NONE',  ( 0.000000000000000000, 0.000000000000000000, 1.000000000000000000 ) ) ;
#212 = CARTESIAN_POINT ( 'NONE',  ( 70.00000000000001421, 29.99999999999998579, 4.000000000000000000 ) ) ;
#213 = ORIENTED_EDGE ( 'NONE', *, *, #354, .F. ) ;
#214 = EDGE_CURVE ( 'NONE', #38, #533, #297, .T. ) ;
#215 = CARTESIAN_POINT ( 'NONE',  ( 0.000000000000000000, 80.00000000000051159, 4.000000000000000000 ) ) ;
#216 = AXIS2_PLACEMENT_3D ( 'NONE', #650, #1093, #924 ) ;
#217 = AXIS2_PLACEMENT_3D ( 'NONE', #491, #408, #594 ) ;
#218 = VECTOR ( 'NONE', #120, 1000.000000000000000 ) ;
#219 = CYLINDRICAL_SURFACE ( 'NONE', #981, 2.500000000000002220 ) ;
#220 = DIRECTION ( 'NONE',  ( -1.000000000000000000, 0.000000000000000000, 0.000000000000000000 ) ) ;
#221 = VERTEX_POINT ( 'NONE', #551 ) ;
#222 = LOCAL_TIME ( 21, 55, 13.00000000000000000, #1147 ) ;
#223 = CIRCLE ( 'NONE', #948, 2.500000000000002220 ) ;
#224 = LINE ( 'NONE', #1034, #403 ) ;
#225 = ADVANCED_FACE ( 'NONE', ( #117 ), #732, .F. ) ;
#226 =( NAMED_UNIT ( * ) SI_UNIT ( $, .STERADIAN. ) SOLID_ANGLE_UNIT ( ) );
#227 = CALENDAR_DATE ( 2024, 30, 12 ) ;
#228 = ORIENTED_EDGE ( 'NONE', *, *, #283, .F. ) ;
#229 = DIRECTION ( 'NONE',  ( -1.000000000000000000, 0.000000000000000000, 0.000000000000000000 ) ) ;
#230 = CARTESIAN_POINT ( 'NONE',  ( 30.00000000000001421, 30.00000000000000000, 4.000000000000000000 ) ) ;
#231 = ORIENTED_EDGE ( 'NONE', *, *, #1121, .F. ) ;
#232 = CYLINDRICAL_SURFACE ( 'NONE', #485, 2.500000000000002220 ) ;
#233 = VERTEX_POINT ( 'NONE', #7 ) ;
#234 = AXIS2_PLACEMENT_3D ( 'NONE', #295, #26, #712 ) ;
#235 = DIRECTION ( 'NONE',  ( 1.000000000000000000, 0.000000000000000000, 0.000000000000000000 ) ) ;
#236 = ORIENTED_EDGE ( 'NONE', *, *, #724, .F. ) ;
#237 = CARTESIAN_POINT ( 'NONE',  ( 47.50000000000001421, 29.99999999999999645, 0.000000000000000000 ) ) ;
#238 = EDGE_LOOP ( 'NONE', ( #589, #639 ) ) ;
#239 = CARTESIAN_POINT ( 'NONE',  ( 10.00000000000001421, 9.999999999999980460, 4.000000000000000000 ) ) ;
#240 = CARTESIAN_POINT ( 'NONE',  ( 30.00000000000001421, 9.999999999999989342, 4.000000000000000000 ) ) ;
#241 = CARTESIAN_POINT ( 'NONE',  ( 12.50000000000074252, 69.99999999999998579, 4.000000000000000000 ) ) ;
#242 = DIRECTION ( 'NONE',  ( -1.000000000000000000, 0.000000000000000000, 0.000000000000000000 ) ) ;
#243 = CARTESIAN_POINT ( 'NONE',  ( 29.99999999999926459, 69.99999999999998579, 0.000000000000000000 ) ) ;
#244 = EDGE_CURVE ( 'NONE', #628, #977, #702, .T. ) ;
#245 = EDGE_LOOP ( 'NONE', ( #1067, #715 ) ) ;
#246 = AXIS2_PLACEMENT_3D ( 'NONE', #94, #738, #729 ) ;
#247 = CIRCLE ( 'NONE', #393, 2.499999999999988454 ) ;
#248 = DIRECTION ( 'NONE',  ( -0.000000000000000000, -0.000000000000000000, -1.000000000000000000 ) ) ;
#249 = DIRECTION ( 'NONE',  ( -0.000000000000000000, -0.000000000000000000, -1.000000000000000000 ) ) ;
#250 = PERSON_AND_ORGANIZATION_ROLE ( 'design_owner' ) ;
#251 = EDGE_LOOP ( 'NONE', ( #875, #1025, #717, #768 ) ) ;
#252 = CARTESIAN_POINT ( 'NONE',  ( 10.00000000000001421, 9.999999999999980460, 4.000000000000000000 ) ) ;
#253 = EDGE_CURVE ( 'NONE', #221, #463, #659, .T. ) ;
#254 = LINE ( 'NONE', #973, #351 ) ;
#255 = ORIENTED_EDGE ( 'NONE', *, *, #10, .T. ) ;
#256 = DIRECTION ( 'NONE',  ( -0.000000000000000000, -0.000000000000000000, -1.000000000000000000 ) ) ;
#257 = CARTESIAN_POINT ( 'NONE',  ( 29.99999999999949196, 49.99999999999997158, 4.000000000000000000 ) ) ;
#258 = EDGE_CURVE ( 'NONE', #617, #903, #753, .T. ) ;
#259 = ORIENTED_EDGE ( 'NONE', *, *, #840, .F. ) ;
#260 = ORIENTED_EDGE ( 'NONE', *, *, #400, .T. ) ;
#261 = ORIENTED_EDGE ( 'NONE', *, *, #958, .T. ) ;
#262 = VECTOR ( 'NONE', #404, 1000.000000000000000 ) ;
#263 = VERTEX_POINT ( 'NONE', #725 ) ;
#264 = AXIS2_PLACEMENT_3D ( 'NONE', #418, #256, #801 ) ;
#265 = CIRCLE ( 'NONE', #127, 2.500000000000000444 ) ;
#266 = LOCAL_TIME ( 21, 55, 13.00000000000000000, #399 ) ;
#267 = VERTEX_POINT ( 'NONE', #291 ) ;
#268 = ORIENTED_EDGE ( 'NONE', *, *, #994, .T. ) ;
#269 = ORIENTED_EDGE ( 'NONE', *, *, #891, .F. ) ;
#270 = DIRECTION ( 'NONE',  ( -1.000000000000000000, 0.000000000000000000, 0.000000000000000000 ) ) ;
#271 = EDGE_CURVE ( 'NONE', #542, #134, #657, .T. ) ;
#272 = DIRECTION ( 'NONE',  ( -0.000000000000000000, -0.000000000000000000, -1.000000000000000000 ) ) ;
#273 = CARTESIAN_POINT ( 'NONE',  ( 47.50000000000001421, 9.999999999999991118, 4.000000000000000000 ) ) ;
#274 = ORIENTED_EDGE ( 'NONE', *, *, #193, .T. ) ;
#275 = EDGE_LOOP ( 'NONE', ( #397, #960, #1068, #583 ) ) ;
#276 = EDGE_CURVE ( 'NONE', #527, #1030, #125, .T. ) ;
#277 = ADVANCED_BREP_SHAPE_REPRESENTATION ( '2040 ANGLE BRACKET-FLAT 01 2024', ( #170, #793 ), #1148 ) ;
#278 = FACE_BOUND ( 'NONE', #238, .T. ) ;
#279 = DIRECTION ( 'NONE',  ( -1.000000000000000000, 0.000000000000000000, 0.000000000000000000 ) ) ;
#280 = AXIS2_PLACEMENT_3D ( 'NONE', #669, #57, #495 ) ;
#281 = CARTESIAN_POINT ( 'NONE',  ( 10.00000000000073719, 69.99999999999998579, 0.000000000000000000 ) ) ;
#282 = DIRECTION ( 'NONE',  ( 1.000000000000000000, 0.000000000000000000, 0.000000000000000000 ) ) ;
#283 = EDGE_CURVE ( 'NONE', #202, #1135, #638, .T. ) ;
#284 = LINE ( 'NONE', #107, #42 ) ;
#285 = DIRECTION ( 'NONE',  ( -1.000000000000000000, 0.000000000000000000, 0.000000000000000000 ) ) ;
#286 = ORIENTED_EDGE ( 'NONE', *, *, #947, .F. ) ;
#287 = AXIS2_PLACEMENT_3D ( 'NONE', #986, #976, #81 ) ;
#288 = EDGE_CURVE ( 'NONE', #474, #977, #940, .T. ) ;
#289 = CARTESIAN_POINT ( 'NONE',  ( 0.000000000000000000, 80.00000000000051159, 0.000000000000000000 ) ) ;
#290 = APPROVAL_STATUS ( 'not_yet_approved' ) ;
#291 = CARTESIAN_POINT ( 'NONE',  ( 67.50000000000002842, 29.99999999999998579, 0.000000000000000000 ) ) ;
#292 = CARTESIAN_POINT ( 'NONE',  ( 29.99999999999926459, 69.99999999999998579, 0.000000000000000000 ) ) ;
#293 = ORIENTED_EDGE ( 'NONE', *, *, #585, .T. ) ;
#294 = DIRECTION ( 'NONE',  ( -1.000000000000000000, 0.000000000000000000, 0.000000000000000000 ) ) ;
#295 = CARTESIAN_POINT ( 'NONE',  ( 10.00000000000001421, 9.999999999999980460, 0.000000000000000000 ) ) ;
#296 = PRODUCT_RELATED_PRODUCT_CATEGORY ( 'detail', '', ( #104 ) ) ;
#297 = CIRCLE ( 'NONE', #1053, 2.500000000000009326 ) ;
#298 = DIRECTION ( 'NONE',  ( -1.000000000000000000, 0.000000000000000000, 0.000000000000000000 ) ) ;
#299 = VECTOR ( 'NONE', #773, 1000.000000000000000 ) ;
#300 = APPROVAL ( #655, 'UNSPECIFIED' ) ;
#301 = VERTEX_POINT ( 'NONE', #302 ) ;
#302 = CARTESIAN_POINT ( 'NONE',  ( 32.50000000000001421, 30.00000000000000000, 0.000000000000000000 ) ) ;
#303 = CARTESIAN_POINT ( 'NONE',  ( 0.000000000000000000, 80.00000000000051159, 4.000000000000000000 ) ) ;
#304 = EDGE_CURVE ( 'NONE', #553, #301, #181, .T. ) ;
#305 = ORIENTED_EDGE ( 'NONE', *, *, #951, .T. ) ;
#306 = CARTESIAN_POINT ( 'NONE',  ( 30.00000000000001421, 9.999999999999989342, 4.000000000000000000 ) ) ;
#307 = CYLINDRICAL_SURFACE ( 'NONE', #855, 2.500000000000005773 ) ;
#308 = ORIENTED_EDGE ( 'NONE', *, *, #730, .F. ) ;
#309 = CIRCLE ( 'NONE', #497, 2.500000000000002220 ) ;
#310 = DIRECTION ( 'NONE',  ( 0.000000000000000000, 0.000000000000000000, 1.000000000000000000 ) ) ;
#311 = DIRECTION ( 'NONE',  ( 0.000000000000000000, 0.000000000000000000, 1.000000000000000000 ) ) ;
#312 = FACE_BOUND ( 'NONE', #862, .T. ) ;
#313 = ORIENTED_EDGE ( 'NONE', *, *, #200, .T. ) ;
#314 = DIRECTION ( 'NONE',  ( -1.000000000000000000, 0.000000000000000000, 0.000000000000000000 ) ) ;
#315 = EDGE_LOOP ( 'NONE', ( #571, #174, #993, #440 ) ) ;
#316 = EDGE_CURVE ( 'NONE', #301, #553, #470, .T. ) ;
#317 = DIRECTION ( 'NONE',  ( 1.000000000000000000, 0.000000000000000000, 0.000000000000000000 ) ) ;
#318 = ORIENTED_EDGE ( 'NONE', *, *, #1140, .F. ) ;
#319 = ORIENTED_EDGE ( 'NONE', *, *, #547, .F. ) ;
#320 = FACE_OUTER_BOUND ( 'NONE', #758, .T. ) ;
#321 = DIRECTION ( 'NONE',  ( -0.000000000000000000, -0.000000000000000000, -1.000000000000000000 ) ) ;
#322 = EDGE_CURVE ( 'NONE', #406, #76, #407, .T. ) ;
#323 = ORIENTED_EDGE ( 'NONE', *, *, #1140, .T. ) ;
#324 = ORIENTED_EDGE ( 'NONE', *, *, #392, .T. ) ;
#325 = CARTESIAN_POINT ( 'NONE',  ( 12.50000000000001421, 9.999999999999980460, 4.000000000000000000 ) ) ;
#326 = CARTESIAN_POINT ( 'NONE',  ( 0.000000000000000000, 0.000000000000000000, 0.000000000000000000 ) ) ;
#327 = VERTEX_POINT ( 'NONE', #401 ) ;
#328 = CARTESIAN_POINT ( 'NONE',  ( 70.00000000000001421, 29.99999999999998579, 4.000000000000000000 ) ) ;
#329 = FACE_OUTER_BOUND ( 'NONE', #437, .T. ) ;
#330 = ADVANCED_FACE ( 'NONE', ( #1039 ), #219, .F. ) ;
#331 = MECHANICAL_CONTEXT ( 'NONE', #558, 'mechanical' ) ;
#332 = EDGE_LOOP ( 'NONE', ( #809, #420 ) ) ;
#333 = DIRECTION ( 'NONE',  ( -0.000000000000000000, -0.000000000000000000, -1.000000000000000000 ) ) ;
#334 = CARTESIAN_POINT ( 'NONE',  ( 27.50000000000001066, 9.999999999999989342, 0.000000000000000000 ) ) ;
#335 = ORIENTED_EDGE ( 'NONE', *, *, #484, .T. ) ;
#336 = DIRECTION ( 'NONE',  ( 0.000000000000000000, 0.000000000000000000, 1.000000000000000000 ) ) ;
#337 = CC_DESIGN_PERSON_AND_ORGANIZATION_ASSIGNMENT ( #383, #389, ( #376 ) ) ;
#338 = ORIENTED_EDGE ( 'NONE', *, *, #663, .T. ) ;
#339 = AXIS2_PLACEMENT_3D ( 'NONE', #907, #369, #285 ) ;
#340 = AXIS2_PLACEMENT_3D ( 'NONE', #824, #832, #28 ) ;
#341 = FACE_OUTER_BOUND ( 'NONE', #442, .T. ) ;
#342 = CARTESIAN_POINT ( 'NONE',  ( 50.00000000000001421, 29.99999999999999645, 4.000000000000000000 ) ) ;
#343 = PLANE ( 'NONE',  #668 ) ;
#344 = AXIS2_PLACEMENT_3D ( 'NONE', #230, #39, #570 ) ;
#345 = ORIENTED_EDGE ( 'NONE', *, *, #410, .T. ) ;
#346 = CARTESIAN_POINT ( 'NONE',  ( 27.49999999999925748, 69.99999999999998579, 0.000000000000000000 ) ) ;
#347 = ORIENTED_EDGE ( 'NONE', *, *, #368, .T. ) ;
#348 = EDGE_CURVE ( 'NONE', #977, #628, #853, .T. ) ;
#349 = DIRECTION ( 'NONE',  ( -1.000000000000000000, 0.000000000000000000, 0.000000000000000000 ) ) ;
#350 = ORIENTED_EDGE ( 'NONE', *, *, #392, .F. ) ;
#351 = VECTOR ( 'NONE', #158, 1000.000000000000000 ) ;
#352 = ORIENTED_EDGE ( 'NONE', *, *, #724, .T. ) ;
#353 = CARTESIAN_POINT ( 'NONE',  ( 7.500000000000508038, 49.99999999999997158, 4.000000000000000000 ) ) ;
#354 = EDGE_CURVE ( 'NONE', #502, #327, #359, .T. ) ;
#355 = VERTEX_POINT ( 'NONE', #588 ) ;
#356 = CYLINDRICAL_SURFACE ( 'NONE', #1092, 2.500000000000002220 ) ;
#357 = ORIENTED_EDGE ( 'NONE', *, *, #304, .F. ) ;
#358 = CARTESIAN_POINT ( 'NONE',  ( 80.00000000000002842, 39.99999999999999289, 4.000000000000000000 ) ) ;
#359 = CIRCLE ( 'NONE', #1125, 2.499999999999988454 ) ;
#360 = ORIENTED_EDGE ( 'NONE', *, *, #565, .F. ) ;
#361 = AXIS2_PLACEMENT_3D ( 'NONE', #252, #518, #886 ) ;
#362 = EDGE_LOOP ( 'NONE', ( #1077, #386, #1099, #783 ) ) ;
#363 = DIRECTION ( 'NONE',  ( -1.000000000000000000, 0.000000000000000000, 0.000000000000000000 ) ) ;
#364 = DIRECTION ( 'NONE',  ( 0.000000000000000000, 0.000000000000000000, 1.000000000000000000 ) ) ;
#365 = DIRECTION ( 'NONE',  ( 1.000000000000000000, -6.123233995736763571E-17, -0.000000000000000000 ) ) ;
#366 = CARTESIAN_POINT ( 'NONE',  ( 40.00000000000000000, 80.00000000000051159, 0.000000000000000000 ) ) ;
#367 = ORIENTED_EDGE ( 'NONE', *, *, #818, .T. ) ;
#368 = EDGE_CURVE ( 'NONE', #451, #27, #452, .T. ) ;
#369 = DIRECTION ( 'NONE',  ( 0.000000000000000000, 0.000000000000000000, 1.000000000000000000 ) ) ;
#370 = ORIENTED_EDGE ( 'NONE', *, *, #288, .F. ) ;
#371 = CARTESIAN_POINT ( 'NONE',  ( 7.500000000000013323, 9.999999999999980460, 4.000000000000000000 ) ) ;
#372 = CIRCLE ( 'NONE', #872, 2.500000000000005773 ) ;
#373 = VECTOR ( 'NONE', #690, 1000.000000000000000 ) ;
#374 = VECTOR ( 'NONE', #365, 1000.000000000000000 ) ;
#375 = CIRCLE ( 'NONE', #580, 2.500000000000000444 ) ;
#376 = PRODUCT_DEFINITION_FORMATION_WITH_SPECIFIED_SOURCE ( 'ANY', '', #104, .NOT_KNOWN. ) ;
#377 = DIRECTION ( 'NONE',  ( 0.000000000000000000, 0.000000000000000000, 1.000000000000000000 ) ) ;
#378 = DIRECTION ( 'NONE',  ( 0.000000000000000000, 0.000000000000000000, 1.000000000000000000 ) ) ;
#379 = LINE ( 'NONE', #1001, #869 ) ;
#380 = ORIENTED_EDGE ( 'NONE', *, *, #400, .F. ) ;
#381 = EDGE_CURVE ( 'NONE', #38, #539, #482, .T. ) ;
#382 = CARTESIAN_POINT ( 'NONE',  ( 7.500000000000268230, 29.99999999999997158, 0.000000000000000000 ) ) ;
#383 = PERSON_AND_ORGANIZATION ( #970, #603 ) ;
#384 = VERTEX_POINT ( 'NONE', #237 ) ;
#385 = FACE_BOUND ( 'NONE', #496, .T. ) ;
#386 = ORIENTED_EDGE ( 'NONE', *, *, #1065, .T. ) ;
#387 = CARTESIAN_POINT ( 'NONE',  ( 50.00000000000001421, 9.999999999999991118, 4.000000000000000000 ) ) ;
#388 = FACE_OUTER_BOUND ( 'NONE', #143, .T. ) ;
#389 = PERSON_AND_ORGANIZATION_ROLE ( 'design_supplier' ) ;
#390 = FACE_OUTER_BOUND ( 'NONE', #608, .T. ) ;
#391 = AXIS2_PLACEMENT_3D ( 'NONE', #13, #475, #17 ) ;
#392 = EDGE_CURVE ( 'NONE', #966, #611, #775, .T. ) ;
#393 = AXIS2_PLACEMENT_3D ( 'NONE', #998, #1084, #820 ) ;
#394 = CARTESIAN_POINT ( 'NONE',  ( 10.00000000000073719, 69.99999999999998579, 4.000000000000000000 ) ) ;
#395 = CIRCLE ( 'NONE', #217, 2.500000000000000444 ) ;
#396 = LINE ( 'NONE', #1023, #637 ) ;
#397 = ORIENTED_EDGE ( 'NONE', *, *, #52, .T. ) ;
#398 = DIRECTION ( 'NONE',  ( -0.000000000000000000, -0.000000000000000000, -1.000000000000000000 ) ) ;
#399 = COORDINATED_UNIVERSAL_TIME_OFFSET ( 8, 0, .BEHIND. ) ;
#400 = EDGE_CURVE ( 'NONE', #1030, #355, #396, .T. ) ;
#401 = CARTESIAN_POINT ( 'NONE',  ( 67.50000000000002842, 10.00000000000000000, 4.000000000000000000 ) ) ;
#402 = ORIENTED_EDGE ( 'NONE', *, *, #316, .T. ) ;
#403 = VECTOR ( 'NONE', #477, 1000.000000000000000 ) ;
#404 = DIRECTION ( 'NONE',  ( -0.000000000000000000, -1.000000000000000000, -0.000000000000000000 ) ) ;
#405 = DIRECTION ( 'NONE',  ( 0.000000000000000000, 0.000000000000000000, 1.000000000000000000 ) ) ;
#406 = VERTEX_POINT ( 'NONE', #48 ) ;
#407 = LINE ( 'NONE', #325, #58 ) ;
#408 = DIRECTION ( 'NONE',  ( 0.000000000000000000, 0.000000000000000000, 1.000000000000000000 ) ) ;
#409 = VERTEX_POINT ( 'NONE', #763 ) ;
#410 = EDGE_CURVE ( 'NONE', #1133, #301, #692, .T. ) ;
#411 = ORIENTED_EDGE ( 'NONE', *, *, #647, .F. ) ;
#412 = DIRECTION ( 'NONE',  ( -0.000000000000000000, -0.000000000000000000, -1.000000000000000000 ) ) ;
#413 = AXIS2_PLACEMENT_3D ( 'NONE', #751, #53, #314 ) ;
#414 = AXIS2_PLACEMENT_3D ( 'NONE', #212, #677, #935 ) ;
#415 = CARTESIAN_POINT ( 'NONE',  ( 27.49999999999925748, 69.99999999999998579, 4.000000000000000000 ) ) ;
#416 = ORIENTED_EDGE ( 'NONE', *, *, #532, .T. ) ;
#417 = SECURITY_CLASSIFICATION ( '', '', #206 ) ;
#418 = CARTESIAN_POINT ( 'NONE',  ( 10.00000000000026823, 29.99999999999997158, 4.000000000000000000 ) ) ;
#419 = ADVANCED_FACE ( 'NONE', ( #584 ), #232, .F. ) ;
#420 = ORIENTED_EDGE ( 'NONE', *, *, #1042, .F. ) ;
#421 = LINE ( 'NONE', #874, #734 ) ;
#422 = ORIENTED_EDGE ( 'NONE', *, *, #1057, .T. ) ;
#423 = LINE ( 'NONE', #353, #1015 ) ;
#424 = DIRECTION ( 'NONE',  ( -0.000000000000000000, -0.000000000000000000, -1.000000000000000000 ) ) ;
#425 = VERTEX_POINT ( 'NONE', #1115 ) ;
#426 = CARTESIAN_POINT ( 'NONE',  ( 67.50000000000002842, 29.99999999999998579, 4.000000000000000000 ) ) ;
#427 = VERTEX_POINT ( 'NONE', #867 ) ;
#428 = LINE ( 'NONE', #876, #201 ) ;
#429 = DIRECTION ( 'NONE',  ( 6.123233995736763571E-17, 1.000000000000000000, -0.000000000000000000 ) ) ;
#430 = LINE ( 'NONE', #1047, #192 ) ;
#431 = CARTESIAN_POINT ( 'NONE',  ( 70.00000000000001421, 10.00000000000000000, 4.000000000000000000 ) ) ;
#432 = EDGE_CURVE ( 'NONE', #1061, #6, #139, .T. ) ;
#433 = ORIENTED_EDGE ( 'NONE', *, *, #453, .T. ) ;
#434 = AXIS2_PLACEMENT_3D ( 'NONE', #203, #1087, #279 ) ;
#435 = CIRCLE ( 'NONE', #1108, 2.500000000000002220 ) ;
#436 = CC_DESIGN_APPROVAL ( #458, ( #671 ) ) ;
#437 = EDGE_LOOP ( 'NONE', ( #707, #422, #446, #812 ) ) ;
#438 = CARTESIAN_POINT ( 'NONE',  ( 30.00000000000001421, 9.999999999999989342, 4.000000000000000000 ) ) ;
#439 = EDGE_CURVE ( 'NONE', #903, #617, #1072, .T. ) ;
#440 = ORIENTED_EDGE ( 'NONE', *, *, #1094, .F. ) ;
#441 = LINE ( 'NONE', #961, #660 ) ;
#442 = EDGE_LOOP ( 'NONE', ( #64, #723, #636, #978 ) ) ;
#443 = CARTESIAN_POINT ( 'NONE',  ( 29.99999999999949196, 49.99999999999997158, 4.000000000000000000 ) ) ;
#444 = VECTOR ( 'NONE', #97, 1000.000000000000000 ) ;
#445 = DIRECTION ( 'NONE',  ( -0.000000000000000000, -0.000000000000000000, -1.000000000000000000 ) ) ;
#446 = ORIENTED_EDGE ( 'NONE', *, *, #532, .F. ) ;
#447 = CARTESIAN_POINT ( 'NONE',  ( 80.00000000000000000, -4.898587196589411448E-15, 4.000000000000000000 ) ) ;
#448 = FACE_OUTER_BOUND ( 'NONE', #837, .T. ) ;
#449 = EDGE_CURVE ( 'NONE', #263, #425, #782, .T. ) ;
#450 = ORIENTED_EDGE ( 'NONE', *, *, #1126, .F. ) ;
#451 = VERTEX_POINT ( 'NONE', #334 ) ;
#452 = CIRCLE ( 'NONE', #280, 2.500000000000002220 ) ;
#453 = EDGE_CURVE ( 'NONE', #611, #885, #151, .T. ) ;
#454 = ORIENTED_EDGE ( 'NONE', *, *, #629, .F. ) ;
#455 = DIRECTION ( 'NONE',  ( -1.000000000000000000, 0.000000000000000000, 0.000000000000000000 ) ) ;
#456 = CARTESIAN_POINT ( 'NONE',  ( 72.50000000000001421, 10.00000000000000000, 0.000000000000000000 ) ) ;
#457 = VERTEX_POINT ( 'NONE', #1035 ) ;
#458 = APPROVAL ( #682, 'UNSPECIFIED' ) ;
#459 = AXIS2_PLACEMENT_3D ( 'NONE', #257, #615, #1052 ) ;
#460 = DIRECTION ( 'NONE',  ( -1.000000000000000000, 0.000000000000000000, 0.000000000000000000 ) ) ;
#461 = DIRECTION ( 'NONE',  ( -0.000000000000000000, -0.000000000000000000, -1.000000000000000000 ) ) ;
#462 = DIRECTION ( 'NONE',  ( 0.000000000000000000, 0.000000000000000000, 1.000000000000000000 ) ) ;
#463 = VERTEX_POINT ( 'NONE', #188 ) ;
#464 = CYLINDRICAL_SURFACE ( 'NONE', #340, 2.499999999999988454 ) ;
#465 = FACE_OUTER_BOUND ( 'NONE', #902, .T. ) ;
#466 = CYLINDRICAL_SURFACE ( 'NONE', #772, 2.500000000000000444 ) ;
#467 = EDGE_CURVE ( 'NONE', #164, #14, #372, .T. ) ;
#468 = FACE_BOUND ( 'NONE', #1075, .T. ) ;
#469 = DIRECTION ( 'NONE',  ( -0.7071067811865519026, -0.7071067811865432429, 0.000000000000000000 ) ) ;
#470 = CIRCLE ( 'NONE', #106, 2.500000000000002220 ) ;
#471 = AXIS2_PLACEMENT_3D ( 'NONE', #865, #953, #757 ) ;
#472 = DIRECTION ( 'NONE',  ( -0.7071067811865431318, 0.7071067811865517916, -0.000000000000000000 ) ) ;
#473 = CIRCLE ( 'NONE', #895, 2.500000000000009326 ) ;
#474 = VERTEX_POINT ( 'NONE', #534 ) ;
#475 = DIRECTION ( 'NONE',  ( 0.000000000000000000, 0.000000000000000000, 1.000000000000000000 ) ) ;
#476 = VERTEX_POINT ( 'NONE', #1095 ) ;
#477 = DIRECTION ( 'NONE',  ( -0.000000000000000000, -0.000000000000000000, -1.000000000000000000 ) ) ;
#478 = FACE_BOUND ( 'NONE', #990, .T. ) ;
#479 = APPROVAL_DATE_TIME ( #842, #300 ) ;
#480 = EDGE_LOOP ( 'NONE', ( #686, #590, #950, #879 ) ) ;
#481 = CARTESIAN_POINT ( 'NONE',  ( 7.500000000000508038, 49.99999999999997158, 0.000000000000000000 ) ) ;
#482 = LINE ( 'NONE', #415, #997 ) ;
#483 = LINE ( 'NONE', #1112, #523 ) ;
#484 = EDGE_CURVE ( 'NONE', #1150, #505, #18, .T. ) ;
#485 = AXIS2_PLACEMENT_3D ( 'NONE', #498, #424, #699 ) ;
#486 = AXIS2_PLACEMENT_3D ( 'NONE', #243, #785, #235 ) ;
#487 = AXIS2_PLACEMENT_3D ( 'NONE', #112, #34, #294 ) ;
#488 = FACE_OUTER_BOUND ( 'NONE', #122, .T. ) ;
#489 = CIRCLE ( 'NONE', #20, 2.500000000000000444 ) ;
#490 = EDGE_LOOP ( 'NONE', ( #50, #503, #670, #733 ) ) ;
#491 = CARTESIAN_POINT ( 'NONE',  ( 10.00000000000001421, 9.999999999999980460, 0.000000000000000000 ) ) ;
#492 = EDGE_LOOP ( 'NONE', ( #531, #318 ) ) ;
#493 = PERSON_AND_ORGANIZATION ( #970, #603 ) ;
#494 = EDGE_CURVE ( 'NONE', #6, #425, #819, .T. ) ;
#495 = DIRECTION ( 'NONE',  ( 1.000000000000000000, 0.000000000000000000, 0.000000000000000000 ) ) ;
#496 = EDGE_LOOP ( 'NONE', ( #843, #1066 ) ) ;
#497 = AXIS2_PLACEMENT_3D ( 'NONE', #342, #1064, #887 ) ;
#498 = CARTESIAN_POINT ( 'NONE',  ( 50.00000000000001421, 29.99999999999999645, 4.000000000000000000 ) ) ;
#499 = ADVANCED_FACE ( 'NONE', ( #465 ), #1071, .F. ) ;
#500 = EDGE_LOOP ( 'NONE', ( #109, #508 ) ) ;
#501 = CARTESIAN_POINT ( 'NONE',  ( 7.500000000000013323, 9.999999999999980460, 4.000000000000000000 ) ) ;
#502 = VERTEX_POINT ( 'NONE', #61 ) ;
#503 = ORIENTED_EDGE ( 'NONE', *, *, #449, .F. ) ;
#504 = CIRCLE ( 'NONE', #391, 2.500000000000002220 ) ;
#505 = VERTEX_POINT ( 'NONE', #1048 ) ;
#506 = CC_DESIGN_PERSON_AND_ORGANIZATION_ASSIGNMENT ( #755, #1017, ( #376 ) ) ;
#507 = LINE ( 'NONE', #614, #373 ) ;
#508 = ORIENTED_EDGE ( 'NONE', *, *, #348, .T. ) ;
#509 = CARTESIAN_POINT ( 'NONE',  ( 10.00000000000026823, 29.99999999999997158, 4.000000000000000000 ) ) ;
#510 = ORIENTED_EDGE ( 'NONE', *, *, #520, .T. ) ;
#511 = DIRECTION ( 'NONE',  ( -0.000000000000000000, -0.000000000000000000, -1.000000000000000000 ) ) ;
#512 = PLANE ( 'NONE',  #802 ) ;
#513 = AXIS2_PLACEMENT_3D ( 'NONE', #899, #693, #1138 ) ;
#514 = ADVANCED_FACE ( 'NONE', ( #1146 ), #153, .F. ) ;
#515 = EDGE_LOOP ( 'NONE', ( #765, #323, #116, #969 ) ) ;
#516 = APPLICATION_PROTOCOL_DEFINITION ( 'international standard', 'config_control_design', 1994, #623 ) ;
#517 = ORIENTED_EDGE ( 'NONE', *, *, #253, .T. ) ;
#518 = DIRECTION ( 'NONE',  ( -0.000000000000000000, -0.000000000000000000, -1.000000000000000000 ) ) ;
#519 = CARTESIAN_POINT ( 'NONE',  ( 50.00000000000001421, 9.999999999999991118, 4.000000000000000000 ) ) ;
#520 = EDGE_CURVE ( 'NONE', #155, #966, #591, .T. ) ;
#521 = ORIENTED_EDGE ( 'NONE', *, *, #727, .F. ) ;
#522 = AXIS2_PLACEMENT_3D ( 'NONE', #811, #822, #176 ) ;
#523 = VECTOR ( 'NONE', #764, 1000.000000000000000 ) ;
#524 = LINE ( 'NONE', #1058, #182 ) ;
#525 = EDGE_LOOP ( 'NONE', ( #186, #517 ) ) ;
#526 = ORIENTED_EDGE ( 'NONE', *, *, #652, .F. ) ;
#527 = VERTEX_POINT ( 'NONE', #426 ) ;
#528 = CYLINDRICAL_SURFACE ( 'NONE', #287, 2.500000000000002220 ) ;
#529 = CARTESIAN_POINT ( 'NONE',  ( 0.000000000000000000, 0.000000000000000000, 4.000000000000000000 ) ) ;
#530 = EDGE_LOOP ( 'NONE', ( #173, #936, #1020, #1128 ) ) ;
#531 = ORIENTED_EDGE ( 'NONE', *, *, #800, .F. ) ;
#532 = EDGE_CURVE ( 'NONE', #602, #476, #1089, .T. ) ;
#533 = VERTEX_POINT ( 'NONE', #618 ) ;
#534 = CARTESIAN_POINT ( 'NONE',  ( 12.50000000000050981, 49.99999999999997158, 4.000000000000000000 ) ) ;
#535 = CARTESIAN_POINT ( 'NONE',  ( 0.000000000000000000, 0.000000000000000000, 0.000000000000000000 ) ) ;
#536 = VECTOR ( 'NONE', #868, 1000.000000000000000 ) ;
#537 = CARTESIAN_POINT ( 'NONE',  ( 0.000000000000000000, 80.00000000000051159, 4.000000000000000000 ) ) ;
#538 = DIRECTION ( 'NONE',  ( -1.000000000000000000, 0.000000000000000000, 0.000000000000000000 ) ) ;
#539 = VERTEX_POINT ( 'NONE', #346 ) ;
#540 = CIRCLE ( 'NONE', #165, 2.500000000000002220 ) ;
#541 = DIRECTION ( 'NONE',  ( -0.000000000000000000, -0.000000000000000000, -1.000000000000000000 ) ) ;
#542 = VERTEX_POINT ( 'NONE', #889 ) ;
#543 = CIRCLE ( 'NONE', #46, 2.500000000000000444 ) ;
#544 = DIRECTION ( 'NONE',  ( -0.000000000000000000, -0.000000000000000000, -1.000000000000000000 ) ) ;
#545 = DIRECTION ( 'NONE',  ( 0.000000000000000000, 0.000000000000000000, 1.000000000000000000 ) ) ;
#546 = CARTESIAN_POINT ( 'NONE',  ( 29.99999999999949196, 49.99999999999997158, 0.000000000000000000 ) ) ;
#547 = EDGE_CURVE ( 'NONE', #505, #1150, #562, .T. ) ;
#548 = CARTESIAN_POINT ( 'NONE',  ( 80.00000000000002842, 39.99999999999999289, 0.000000000000000000 ) ) ;
#549 = CIRCLE ( 'NONE', #1006, 2.500000000000002220 ) ;
#550 = CARTESIAN_POINT ( 'NONE',  ( 7.500000000000731859, 69.99999999999998579, 0.000000000000000000 ) ) ;
#551 = CARTESIAN_POINT ( 'NONE',  ( 52.50000000000002132, 9.999999999999991118, 0.000000000000000000 ) ) ;
#552 = CYLINDRICAL_SURFACE ( 'NONE', #774, 2.500000000000005773 ) ;
#553 = VERTEX_POINT ( 'NONE', #1158 ) ;
#554 = CARTESIAN_POINT ( 'NONE',  ( 50.00000000000001421, 9.999999999999991118, 4.000000000000000000 ) ) ;
#555 = ORIENTED_EDGE ( 'NONE', *, *, #1042, .T. ) ;
#556 = EDGE_CURVE ( 'NONE', #267, #355, #247, .T. ) ;
#557 = CARTESIAN_POINT ( 'NONE',  ( 10.00000000000073719, 69.99999999999998579, 4.000000000000000000 ) ) ;
#558 = APPLICATION_CONTEXT ( 'configuration controlled 3d designs of mechanical parts and assemblies' ) ;
#559 = LINE ( 'NONE', #750, #703 ) ;
#560 = DIRECTION ( 'NONE',  ( -1.000000000000000000, 0.000000000000000000, 0.000000000000000000 ) ) ;
#561 = ORIENTED_EDGE ( 'NONE', *, *, #187, .T. ) ;
#562 = CIRCLE ( 'NONE', #91, 2.500000000000002220 ) ;
#563 = CC_DESIGN_SECURITY_CLASSIFICATION ( #417, ( #376 ) ) ;
#564 = FACE_BOUND ( 'NONE', #332, .T. ) ;
#565 = EDGE_CURVE ( 'NONE', #1002, #885, #183, .T. ) ;
#566 = CARTESIAN_POINT ( 'NONE',  ( 7.500000000000731859, 69.99999999999998579, 4.000000000000000000 ) ) ;
#567 = DIRECTION ( 'NONE',  ( -1.000000000000000000, 0.000000000000000000, 0.000000000000000000 ) ) ;
#568 = DIRECTION ( 'NONE',  ( 0.000000000000000000, 0.000000000000000000, 1.000000000000000000 ) ) ;
#569 = DIRECTION ( 'NONE',  ( -0.000000000000000000, -0.000000000000000000, -1.000000000000000000 ) ) ;
#570 = DIRECTION ( 'NONE',  ( -1.000000000000000000, 0.000000000000000000, 0.000000000000000000 ) ) ;
#571 = ORIENTED_EDGE ( 'NONE', *, *, #813, .T. ) ;
#572 = ADVANCED_FACE ( 'NONE', ( #1090 ), #356, .F. ) ;
#573 = DIRECTION ( 'NONE',  ( -1.000000000000000000, 0.000000000000000000, 0.000000000000000000 ) ) ;
#574 = DIRECTION ( 'NONE',  ( -1.000000000000000000, 0.000000000000000000, 0.000000000000000000 ) ) ;
#575 = DIRECTION ( 'NONE',  ( -0.000000000000000000, -0.000000000000000000, -1.000000000000000000 ) ) ;
#576 = ORIENTED_EDGE ( 'NONE', *, *, #85, .T. ) ;
#577 = CARTESIAN_POINT ( 'NONE',  ( 7.500000000000731859, 69.99999999999998579, 4.000000000000000000 ) ) ;
#578 = ADVANCED_FACE ( 'NONE', ( #175 ), #620, .F. ) ;
#579 = VECTOR ( 'NONE', #544, 1000.000000000000000 ) ;
#580 = AXIS2_PLACEMENT_3D ( 'NONE', #920, #1008, #938 ) ;
#581 = CARTESIAN_POINT ( 'NONE',  ( 27.50000000000001066, 9.999999999999989342, 4.000000000000000000 ) ) ;
#582 = SHAPE_DEFINITION_REPRESENTATION ( #848, #277 ) ;
#583 = ORIENTED_EDGE ( 'NONE', *, *, #150, .F. ) ;
#584 = FACE_OUTER_BOUND ( 'NONE', #362, .T. ) ;
#585 = EDGE_CURVE ( 'NONE', #14, #164, #893, .T. ) ;
#586 = CARTESIAN_POINT ( 'NONE',  ( 0.000000000000000000, 0.000000000000000000, 0.000000000000000000 ) ) ;
#587 = APPROVAL_DATE_TIME ( #115, #11 ) ;
#588 = CARTESIAN_POINT ( 'NONE',  ( 72.50000000000001421, 29.99999999999998579, 0.000000000000000000 ) ) ;
#589 = ORIENTED_EDGE ( 'NONE', *, *, #904, .T. ) ;
#590 = ORIENTED_EDGE ( 'NONE', *, *, #432, .F. ) ;
#591 = LINE ( 'NONE', #147, #923 ) ;
#592 =( LENGTH_UNIT ( ) NAMED_UNIT ( * ) SI_UNIT ( .MILLI., .METRE. ) );
#593 = ORIENTED_EDGE ( 'NONE', *, *, #52, .F. ) ;
#594 = DIRECTION ( 'NONE',  ( 1.000000000000000000, 0.000000000000000000, 0.000000000000000000 ) ) ;
#595 = ORIENTED_EDGE ( 'NONE', *, *, #276, .T. ) ;
#596 = CARTESIAN_POINT ( 'NONE',  ( 72.50000000000001421, 29.99999999999998579, 4.000000000000000000 ) ) ;
#597 = DIRECTION ( 'NONE',  ( -0.000000000000000000, -0.000000000000000000, -1.000000000000000000 ) ) ;
#598 = EDGE_LOOP ( 'NONE', ( #705, #30, #956, #919 ) ) ;
#599 = PERSON_AND_ORGANIZATION ( #970, #603 ) ;
#600 = AXIS2_PLACEMENT_3D ( 'NONE', #612, #68, #883 ) ;
#601 = AXIS2_PLACEMENT_3D ( 'NONE', #431, #957, #62 ) ;
#602 = VERTEX_POINT ( 'NONE', #382 ) ;
#603 = ORGANIZATION ( 'UNSPECIFIED', 'UNSPECIFIED', '' ) ;
#604 = ADVANCED_FACE ( 'NONE', ( #1003, #933, #29, #1109, #742, #114, #478, #1010, #736, #312, #661, #754, #564 ), #916, .F. ) ;
#605 = CYLINDRICAL_SURFACE ( 'NONE', #264, 2.500000000000000444 ) ;
#606 = DIRECTION ( 'NONE',  ( 6.938893903907228378E-16, 1.000000000000000000, -0.000000000000000000 ) ) ;
#607 = CARTESIAN_POINT ( 'NONE',  ( 80.00000000000002842, 39.99999999999999289, 4.000000000000000000 ) ) ;
#608 = EDGE_LOOP ( 'NONE', ( #380, #162, #984, #236 ) ) ;
#609 = EDGE_LOOP ( 'NONE', ( #367, #1056, #338, #261, #1132 ) ) ;
#610 = ADVANCED_FACE ( 'NONE', ( #488 ), #189, .F. ) ;
#611 = VERTEX_POINT ( 'NONE', #289 ) ;
#612 = CARTESIAN_POINT ( 'NONE',  ( 10.00000000000026823, 29.99999999999997158, 0.000000000000000000 ) ) ;
#613 = EDGE_LOOP ( 'NONE', ( #324, #849, #1088, #510 ) ) ;
#614 = CARTESIAN_POINT ( 'NONE',  ( 32.49999999999949551, 49.99999999999997158, 4.000000000000000000 ) ) ;
#615 = DIRECTION ( 'NONE',  ( 0.000000000000000000, 0.000000000000000000, 1.000000000000000000 ) ) ;
#616 = ORIENTED_EDGE ( 'NONE', *, *, #271, .T. ) ;
#617 = VERTEX_POINT ( 'NONE', #550 ) ;
#618 = CARTESIAN_POINT ( 'NONE',  ( 32.49999999999927525, 69.99999999999998579, 4.000000000000000000 ) ) ;
#619 = EDGE_CURVE ( 'NONE', #885, #6, #654, .T. ) ;
#620 = CYLINDRICAL_SURFACE ( 'NONE', #1036, 2.500000000000005773 ) ;
#621 = EDGE_LOOP ( 'NONE', ( #929, #293, #1041, #684 ) ) ;
#622 = VECTOR ( 'NONE', #190, 1000.000000000000000 ) ;
#623 = APPLICATION_CONTEXT ( 'configuration controlled 3d designs of mechanical parts and assemblies' ) ;
#624 = CIRCLE ( 'NONE', #1055, 2.500000000000002220 ) ;
#625 = FACE_OUTER_BOUND ( 'NONE', #598, .T. ) ;
#626 = FACE_OUTER_BOUND ( 'NONE', #490, .T. ) ;
#627 = APPROVAL_PERSON_ORGANIZATION ( #37, #11, #743 ) ;
#628 = VERTEX_POINT ( 'NONE', #481 ) ;
#629 = EDGE_CURVE ( 'NONE', #134, #1012, #624, .T. ) ;
#630 = ORIENTED_EDGE ( 'NONE', *, *, #704, .T. ) ;
#631 = DIRECTION ( 'NONE',  ( 0.000000000000000000, 0.000000000000000000, -1.000000000000000000 ) ) ;
#632 = VERTEX_POINT ( 'NONE', #303 ) ;
#633 = VERTEX_POINT ( 'NONE', #1117 ) ;
#634 = ADVANCED_FACE ( 'NONE', ( #928 ), #841, .F. ) ;
#635 = CARTESIAN_POINT ( 'NONE',  ( 52.50000000000002132, 29.99999999999999645, 0.000000000000000000 ) ) ;
#636 = ORIENTED_EDGE ( 'NONE', *, *, #283, .T. ) ;
#637 = VECTOR ( 'NONE', #128, 1000.000000000000000 ) ;
#638 = LINE ( 'NONE', #501, #1032 ) ;
#639 = ORIENTED_EDGE ( 'NONE', *, *, #989, .T. ) ;
#640 = ADVANCED_FACE ( 'NONE', ( #835 ), #466, .F. ) ;
#641 = CIRCLE ( 'NONE', #486, 2.500000000000009326 ) ;
#642 = VECTOR ( 'NONE', #943, 1000.000000000000000 ) ;
#643 = APPROVAL_PERSON_ORGANIZATION ( #790, #458, #884 ) ;
#644 = CARTESIAN_POINT ( 'NONE',  ( 29.99999999999949196, 49.99999999999997158, 4.000000000000000000 ) ) ;
#645 = DIRECTION ( 'NONE',  ( -1.000000000000000000, 0.000000000000000000, 0.000000000000000000 ) ) ;
#646 = LINE ( 'NONE', #917, #1143 ) ;
#647 = EDGE_CURVE ( 'NONE', #542, #457, #540, .T. ) ;
#648 = VECTOR ( 'NONE', #606, 1000.000000000000000 ) ;
#649 = DIRECTION ( 'NONE',  ( -0.7071067811865431318, 0.7071067811865517916, -0.000000000000000000 ) ) ;
#650 = CARTESIAN_POINT ( 'NONE',  ( 50.00000000000001421, 9.999999999999991118, 0.000000000000000000 ) ) ;
#651 = FACE_OUTER_BOUND ( 'NONE', #909, .T. ) ;
#652 = EDGE_CURVE ( 'NONE', #202, #406, #375, .T. ) ;
#653 = DIRECTION ( 'NONE',  ( 0.000000000000000000, 0.000000000000000000, 1.000000000000000000 ) ) ;
#654 = LINE ( 'NONE', #198, #218 ) ;
#655 = APPROVAL_STATUS ( 'not_yet_approved' ) ;
#656 = ORIENTED_EDGE ( 'NONE', *, *, #22, .F. ) ;
#657 = LINE ( 'NONE', #1005, #622 ) ;
#658 = DIRECTION ( 'NONE',  ( 1.000000000000000000, 0.000000000000000000, 0.000000000000000000 ) ) ;
#659 = CIRCLE ( 'NONE', #216, 2.500000000000002220 ) ;
#660 = VECTOR ( 'NONE', #1069, 1000.000000000000000 ) ;
#661 = FACE_BOUND ( 'NONE', #1130, .T. ) ;
#662 = PERSON_AND_ORGANIZATION ( #970, #603 ) ;
#663 = EDGE_CURVE ( 'NONE', #263, #155, #284, .T. ) ;
#664 = DIRECTION ( 'NONE',  ( 0.000000000000000000, 0.000000000000000000, 1.000000000000000000 ) ) ;
#665 = CARTESIAN_POINT ( 'NONE',  ( 47.50000000000001421, 9.999999999999991118, 4.000000000000000000 ) ) ;
#666 = DIRECTION ( 'NONE',  ( -1.000000000000000000, 0.000000000000000000, 0.000000000000000000 ) ) ;
#667 = DATE_TIME_ROLE ( 'creation_date' ) ;
#668 = AXIS2_PLACEMENT_3D ( 'NONE', #529, #1076, #992 ) ;
#669 = CARTESIAN_POINT ( 'NONE',  ( 30.00000000000001421, 9.999999999999989342, 0.000000000000000000 ) ) ;
#670 = ORIENTED_EDGE ( 'NONE', *, *, #119, .F. ) ;
#671 = PRODUCT_DEFINITION ( 'UNKNOWN', '', #376, #87 ) ;
#672 = DIRECTION ( 'NONE',  ( -1.000000000000000000, 0.000000000000000000, 0.000000000000000000 ) ) ;
#673 = CALENDAR_DATE ( 2024, 30, 12 ) ;
#674 = PERSON_AND_ORGANIZATION_ROLE ( 'creator' ) ;
#675 = VERTEX_POINT ( 'NONE', #194 ) ;
#676 = CARTESIAN_POINT ( 'NONE',  ( 30.00000000000001421, 30.00000000000000000, 0.000000000000000000 ) ) ;
#677 = DIRECTION ( 'NONE',  ( -0.000000000000000000, -0.000000000000000000, -1.000000000000000000 ) ) ;
#678 = EDGE_CURVE ( 'NONE', #425, #966, #559, .T. ) ;
#679 = AXIS2_PLACEMENT_3D ( 'NONE', #92, #12, #1083 ) ;
#680 = AXIS2_PLACEMENT_3D ( 'NONE', #160, #248, #870 ) ;
#681 = AXIS2_PLACEMENT_3D ( 'NONE', #205, #412, #63 ) ;
#682 = APPROVAL_STATUS ( 'not_yet_approved' ) ;
#683 = LOCAL_TIME ( 21, 55, 13.00000000000000000, #199 ) ;
#684 = ORIENTED_EDGE ( 'NONE', *, *, #439, .F. ) ;
#685 = CARTESIAN_POINT ( 'NONE',  ( 0.000000000000000000, 0.000000000000000000, 4.000000000000000000 ) ) ;
#686 = ORIENTED_EDGE ( 'NONE', *, *, #619, .T. ) ;
#687 = DIRECTION ( 'NONE',  ( 1.000000000000000000, 0.000000000000000000, 0.000000000000000000 ) ) ;
#688 = CARTESIAN_POINT ( 'NONE',  ( 30.00000000000001421, 30.00000000000000000, 4.000000000000000000 ) ) ;
#689 = ORIENTED_EDGE ( 'NONE', *, *, #678, .F. ) ;
#690 = DIRECTION ( 'NONE',  ( -0.000000000000000000, -0.000000000000000000, -1.000000000000000000 ) ) ;
#691 = CARTESIAN_POINT ( 'NONE',  ( 47.50000000000001421, 29.99999999999999645, 4.000000000000000000 ) ) ;
#692 = LINE ( 'NONE', #135, #161 ) ;
#693 = DIRECTION ( 'NONE',  ( -0.000000000000000000, -0.000000000000000000, -1.000000000000000000 ) ) ;
#694 = DIRECTION ( 'NONE',  ( -0.000000000000000000, -0.000000000000000000, -1.000000000000000000 ) ) ;
#695 = ADVANCED_FACE ( 'NONE', ( #388 ), #1105, .F. ) ;
#696 = ORIENTED_EDGE ( 'NONE', *, *, #826, .T. ) ;
#697 = FACE_OUTER_BOUND ( 'NONE', #315, .T. ) ;
#698 = FACE_BOUND ( 'NONE', #1038, .T. ) ;
#699 = DIRECTION ( 'NONE',  ( -1.000000000000000000, 0.000000000000000000, 0.000000000000000000 ) ) ;
#700 = EDGE_LOOP ( 'NONE', ( #1073, #1124, #616, #259 ) ) ;
#701 = DIRECTION ( 'NONE',  ( 1.000000000000000000, 0.000000000000000000, 0.000000000000000000 ) ) ;
#702 = CIRCLE ( 'NONE', #339, 2.500000000000000444 ) ;
#703 = VECTOR ( 'NONE', #472, 1000.000000000000114 ) ;
#704 = EDGE_CURVE ( 'NONE', #505, #27, #926, .T. ) ;
#705 = ORIENTED_EDGE ( 'NONE', *, *, #410, .F. ) ;
#706 = CYLINDRICAL_SURFACE ( 'NONE', #361, 2.500000000000000444 ) ;
#707 = ORIENTED_EDGE ( 'NONE', *, *, #800, .T. ) ;
#708 = CARTESIAN_POINT ( 'NONE',  ( 10.00000000000073719, 69.99999999999998579, 4.000000000000000000 ) ) ;
#709 = ORIENTED_EDGE ( 'NONE', *, *, #652, .T. ) ;
#710 = CARTESIAN_POINT ( 'NONE',  ( 70.00000000000001421, 10.00000000000000000, 0.000000000000000000 ) ) ;
#711 = FACE_BOUND ( 'NONE', #245, .T. ) ;
#712 = DIRECTION ( 'NONE',  ( 1.000000000000000000, 0.000000000000000000, 0.000000000000000000 ) ) ;
#713 = ADVANCED_FACE ( 'NONE', ( #996 ), #914, .F. ) ;
#714 = CIRCLE ( 'NONE', #864, 2.500000000000002220 ) ;
#715 = ORIENTED_EDGE ( 'NONE', *, *, #840, .T. ) ;
#716 = ORIENTED_EDGE ( 'NONE', *, *, #368, .F. ) ;
#717 = ORIENTED_EDGE ( 'NONE', *, *, #663, .F. ) ;
#718 = CARTESIAN_POINT ( 'NONE',  ( 10.00000000000050804, 49.99999999999997158, 4.000000000000000000 ) ) ;
#719 = ADVANCED_FACE ( 'NONE', ( #99 ), #464, .F. ) ;
#720 = EDGE_LOOP ( 'NONE', ( #79, #898, #350, #689, #126 ) ) ;
#721 = AXIS2_PLACEMENT_3D ( 'NONE', #70, #781, #778 ) ;
#722 = LINE ( 'NONE', #1155, #648 ) ;
#723 = ORIENTED_EDGE ( 'NONE', *, *, #1007, .T. ) ;
#724 = EDGE_CURVE ( 'NONE', #355, #267, #999, .T. ) ;
#725 = CARTESIAN_POINT ( 'NONE',  ( 80.00000000000002842, 39.99999999999999289, 4.000000000000000000 ) ) ;
#726 = VERTEX_POINT ( 'NONE', #691 ) ;
#727 = EDGE_CURVE ( 'NONE', #164, #617, #1045, .T. ) ;
#728 = CARTESIAN_POINT ( 'NONE',  ( 40.00000000000000000, 80.00000000000051159, 4.000000000000000000 ) ) ;
#729 = DIRECTION ( 'NONE',  ( -1.000000000000000000, 0.000000000000000000, 0.000000000000000000 ) ) ;
#730 = EDGE_CURVE ( 'NONE', #474, #803, #265, .T. ) ;
#731 = CIRCLE ( 'NONE', #522, 2.500000000000000444 ) ;
#732 = PLANE ( 'NONE',  #791 ) ;
#733 = ORIENTED_EDGE ( 'NONE', *, *, #432, .T. ) ;
#734 = VECTOR ( 'NONE', #196, 1000.000000000000000 ) ;
#735 = VECTOR ( 'NONE', #932, 1000.000000000000000 ) ;
#736 = FACE_BOUND ( 'NONE', #858, .T. ) ;
#737 = DIRECTION ( 'NONE',  ( 0.000000000000000000, -1.000000000000000000, 0.000000000000000000 ) ) ;
#738 = DIRECTION ( 'NONE',  ( 0.000000000000000000, 0.000000000000000000, 1.000000000000000000 ) ) ;
#739 = CARTESIAN_POINT ( 'NONE',  ( 32.50000000000001421, 9.999999999999989342, 4.000000000000000000 ) ) ;
#740 = ADVANCED_FACE ( 'NONE', ( #320 ), #955, .F. ) ;
#741 = AXIS2_PLACEMENT_3D ( 'NONE', #930, #469, #995 ) ;
#742 = FACE_BOUND ( 'NONE', #172, .T. ) ;
#743 = APPROVAL_ROLE ( '' ) ;
#744 = ORIENTED_EDGE ( 'NONE', *, *, #1149, .F. ) ;
#745 = FACE_BOUND ( 'NONE', #780, .T. ) ;
#746 = CARTESIAN_POINT ( 'NONE',  ( 27.50000000000001066, 30.00000000000000000, 4.000000000000000000 ) ) ;
#747 = ORIENTED_EDGE ( 'NONE', *, *, #381, .T. ) ;
#748 = DIRECTION ( 'NONE',  ( 0.000000000000000000, 0.000000000000000000, 1.000000000000000000 ) ) ;
#749 = ADVANCED_FACE ( 'NONE', ( #711, #881, #698, #788, #896, #468, #31, #922, #1086, #278, #821, #385, #745 ), #1100, .T. ) ;
#750 = CARTESIAN_POINT ( 'NONE',  ( 40.00000000000000000, 80.00000000000051159, 0.000000000000000000 ) ) ;
#751 = CARTESIAN_POINT ( 'NONE',  ( 30.00000000000001421, 30.00000000000000000, 0.000000000000000000 ) ) ;
#752 = DIRECTION ( 'NONE',  ( -1.000000000000000000, 0.000000000000000000, 0.000000000000000000 ) ) ;
#753 = CIRCLE ( 'NONE', #144, 2.500000000000005773 ) ;
#754 = FACE_BOUND ( 'NONE', #89, .T. ) ;
#755 = PERSON_AND_ORGANIZATION ( #970, #603 ) ;
#756 = CC_DESIGN_DATE_AND_TIME_ASSIGNMENT ( #136, #1098, ( #417 ) ) ;
#757 = DIRECTION ( 'NONE',  ( 1.000000000000000000, 0.000000000000000000, 0.000000000000000000 ) ) ;
#758 = EDGE_LOOP ( 'NONE', ( #335, #630, #716, #779 ) ) ;
#759 = CARTESIAN_POINT ( 'NONE',  ( 29.99999999999949196, 49.99999999999997158, 0.000000000000000000 ) ) ;
#760 = PERSON_AND_ORGANIZATION_ROLE ( 'classification_officer' ) ;
#761 = CIRCLE ( 'NONE', #1097, 2.500000000000002220 ) ;
#762 = ADVANCED_FACE ( 'NONE', ( #1079 ), #991, .F. ) ;
#763 = CARTESIAN_POINT ( 'NONE',  ( 32.49999999999927525, 69.99999999999998579, 0.000000000000000000 ) ) ;
#764 = DIRECTION ( 'NONE',  ( -0.000000000000000000, -0.000000000000000000, -1.000000000000000000 ) ) ;
#765 = ORIENTED_EDGE ( 'NONE', *, *, #1057, .F. ) ;
#766 = DIRECTION ( 'NONE',  ( -0.000000000000000000, -0.000000000000000000, -1.000000000000000000 ) ) ;
#767 = CARTESIAN_POINT ( 'NONE',  ( 29.99999999999926459, 69.99999999999998579, 4.000000000000000000 ) ) ;
#768 = ORIENTED_EDGE ( 'NONE', *, *, #449, .T. ) ;
#769 = EDGE_CURVE ( 'NONE', #726, #633, #223, .T. ) ;
#770 = ORIENTED_EDGE ( 'NONE', *, *, #130, .T. ) ;
#771 = CIRCLE ( 'NONE', #471, 2.499999999999988454 ) ;
#772 = AXIS2_PLACEMENT_3D ( 'NONE', #1022, #209, #573 ) ;
#773 = DIRECTION ( 'NONE',  ( -0.000000000000000000, -1.000000000000000000, -0.000000000000000000 ) ) ;
#774 = AXIS2_PLACEMENT_3D ( 'NONE', #1014, #204, #538 ) ;
#775 = LINE ( 'NONE', #1131, #75 ) ;
#776 = DIRECTION ( 'NONE',  ( -0.000000000000000000, -0.000000000000000000, -1.000000000000000000 ) ) ;
#777 = ORIENTED_EDGE ( 'NONE', *, *, #813, .F. ) ;
#778 = DIRECTION ( 'NONE',  ( 1.000000000000000000, 0.000000000000000000, 0.000000000000000000 ) ) ;
#779 = ORIENTED_EDGE ( 'NONE', *, *, #911, .F. ) ;
#780 = EDGE_LOOP ( 'NONE', ( #871, #974 ) ) ;
#781 = DIRECTION ( 'NONE',  ( 0.000000000000000000, 0.000000000000000000, 1.000000000000000000 ) ) ;
#782 = LINE ( 'NONE', #607, #890 ) ;
#783 = ORIENTED_EDGE ( 'NONE', *, *, #40, .F. ) ;
#784 = EDGE_CURVE ( 'NONE', #409, #539, #473, .T. ) ;
#785 = DIRECTION ( 'NONE',  ( 0.000000000000000000, 0.000000000000000000, 1.000000000000000000 ) ) ;
#786 = ORIENTED_EDGE ( 'NONE', *, *, #137, .F. ) ;
#787 = CYLINDRICAL_SURFACE ( 'NONE', #873, 2.500000000000000444 ) ;
#788 = FACE_BOUND ( 'NONE', #823, .T. ) ;
#789 = ORIENTED_EDGE ( 'NONE', *, *, #1078, .F. ) ;
#790 = PERSON_AND_ORGANIZATION ( #970, #603 ) ;
#791 = AXIS2_PLACEMENT_3D ( 'NONE', #537, #737, #1000 ) ;
#792 = AXIS2_PLACEMENT_3D ( 'NONE', #535, #631, #16 ) ;
#793 = AXIS2_PLACEMENT_3D ( 'NONE', #586, #336, #701 ) ;
#794 = ADVANCED_FACE ( 'NONE', ( #651 ), #552, .F. ) ;
#795 = ORIENTED_EDGE ( 'NONE', *, *, #979, .F. ) ;
#796 = CARTESIAN_POINT ( 'NONE',  ( 0.000000000000000000, 0.000000000000000000, 4.000000000000000000 ) ) ;
#797 = ORIENTED_EDGE ( 'NONE', *, *, #484, .F. ) ;
#798 = DIRECTION ( 'NONE',  ( -1.000000000000000000, 0.000000000000000000, 0.000000000000000000 ) ) ;
#799 = ORIENTED_EDGE ( 'NONE', *, *, #22, .T. ) ;
#800 = EDGE_CURVE ( 'NONE', #233, #427, #111, .T. ) ;
#801 = DIRECTION ( 'NONE',  ( -1.000000000000000000, 0.000000000000000000, 0.000000000000000000 ) ) ;
#802 = AXIS2_PLACEMENT_3D ( 'NONE', #358, #1070, #157 ) ;
#803 = VERTEX_POINT ( 'NONE', #931 ) ;
#804 = DIRECTION ( 'NONE',  ( 1.000000000000000000, 0.000000000000000000, 0.000000000000000000 ) ) ;
#805 = ORIENTED_EDGE ( 'NONE', *, *, #1121, .T. ) ;
#806 = ORIENTED_EDGE ( 'NONE', *, *, #915, .T. ) ;
#807 = ORIENTED_EDGE ( 'NONE', *, *, #85, .F. ) ;
#808 = CARTESIAN_POINT ( 'NONE',  ( 10.00000000000073719, 69.99999999999998579, 4.000000000000000000 ) ) ;
#809 = ORIENTED_EDGE ( 'NONE', *, *, #214, .F. ) ;
#810 = AXIS2_PLACEMENT_3D ( 'NONE', #121, #132, #229 ) ;
#811 = CARTESIAN_POINT ( 'NONE',  ( 10.00000000000026823, 29.99999999999997158, 0.000000000000000000 ) ) ;
#812 = ORIENTED_EDGE ( 'NONE', *, *, #15, .F. ) ;
#813 = EDGE_CURVE ( 'NONE', #803, #474, #3, .T. ) ;
#814 = CARTESIAN_POINT ( 'NONE',  ( 50.00000000000001421, 29.99999999999999645, 4.000000000000000000 ) ) ;
#815 = DIRECTION ( 'NONE',  ( -1.000000000000000000, 0.000000000000000000, 0.000000000000000000 ) ) ;
#816 = CIRCLE ( 'NONE', #964, 2.500000000000002220 ) ;
#817 = CIRCLE ( 'NONE', #1021, 2.500000000000002220 ) ;
#818 = EDGE_CURVE ( 'NONE', #1002, #1061, #25, .T. ) ;
#819 = LINE ( 'NONE', #548, #4 ) ;
#820 = DIRECTION ( 'NONE',  ( -1.000000000000000000, 0.000000000000000000, 0.000000000000000000 ) ) ;
#821 = FACE_BOUND ( 'NONE', #178, .T. ) ;
#822 = DIRECTION ( 'NONE',  ( 0.000000000000000000, 0.000000000000000000, 1.000000000000000000 ) ) ;
#823 = EDGE_LOOP ( 'NONE', ( #416, #274 ) ) ;
#824 = CARTESIAN_POINT ( 'NONE',  ( 70.00000000000001421, 10.00000000000000000, 4.000000000000000000 ) ) ;
#825 = CARTESIAN_POINT ( 'NONE',  ( 29.99999999999949196, 49.99999999999997158, 4.000000000000000000 ) ) ;
#826 = EDGE_CURVE ( 'NONE', #327, #1102, #379, .T. ) ;
#827 = AXIS2_PLACEMENT_3D ( 'NONE', #443, #980, #242 ) ;
#828 = CARTESIAN_POINT ( 'NONE',  ( 29.99999999999926459, 69.99999999999998579, 4.000000000000000000 ) ) ;
#829 = DIRECTION ( 'NONE',  ( -1.000000000000000000, 0.000000000000000000, 0.000000000000000000 ) ) ;
#830 = ORIENTED_EDGE ( 'NONE', *, *, #467, .F. ) ;
#831 = VECTOR ( 'NONE', #776, 1000.000000000000000 ) ;
#832 = DIRECTION ( 'NONE',  ( -0.000000000000000000, -0.000000000000000000, -1.000000000000000000 ) ) ;
#833 = LOCAL_TIME ( 21, 55, 13.00000000000000000, #1110 ) ;
#834 = EDGE_LOOP ( 'NONE', ( #860, #555, #747, #33 ) ) ;
#835 = FACE_OUTER_BOUND ( 'NONE', #69, .T. ) ;
#836 = PERSON_AND_ORGANIZATION ( #970, #603 ) ;
#837 = EDGE_LOOP ( 'NONE', ( #433, #360, #450, #937 ) ) ;
#838 = DIRECTION ( 'NONE',  ( 0.000000000000000000, 0.000000000000000000, 1.000000000000000000 ) ) ;
#839 = ORIENTED_EDGE ( 'NONE', *, *, #187, .F. ) ;
#840 = EDGE_CURVE ( 'NONE', #1012, #134, #1031, .T. ) ;
#841 = CYLINDRICAL_SURFACE ( 'NONE', #946, 2.500000000000000444 ) ;
#842 = DATE_AND_TIME ( #1122, #833 ) ;
#843 = ORIENTED_EDGE ( 'NONE', *, *, #258, .T. ) ;
#844 = LINE ( 'NONE', #1050, #892 ) ;
#845 = DIRECTION ( 'NONE',  ( -1.000000000000000000, 0.000000000000000000, 0.000000000000000000 ) ) ;
#846 = CC_DESIGN_PERSON_AND_ORGANIZATION_ASSIGNMENT ( #599, #250, ( #104 ) ) ;
#847 = DIRECTION ( 'NONE',  ( 0.000000000000000000, 0.000000000000000000, 1.000000000000000000 ) ) ;
#848 = PRODUCT_DEFINITION_SHAPE ( 'NONE', 'NONE',  #671 ) ;
#849 = ORIENTED_EDGE ( 'NONE', *, *, #1156, .F. ) ;
#850 = DIRECTION ( 'NONE',  ( -1.000000000000000000, -0.000000000000000000, -0.000000000000000000 ) ) ;
#851 = FACE_OUTER_BOUND ( 'NONE', #834, .T. ) ;
#852 = ORIENTED_EDGE ( 'NONE', *, *, #66, .T. ) ;
#853 = CIRCLE ( 'NONE', #810, 2.500000000000000444 ) ;
#854 = AXIS2_PLACEMENT_3D ( 'NONE', #554, #541, #918 ) ;
#855 = AXIS2_PLACEMENT_3D ( 'NONE', #767, #575, #1123 ) ;
#856 = EDGE_CURVE ( 'NONE', #533, #409, #646, .T. ) ;
#857 = CARTESIAN_POINT ( 'NONE',  ( 70.00000000000001421, 10.00000000000000000, 4.000000000000000000 ) ) ;
#858 = EDGE_LOOP ( 'NONE', ( #1, #807 ) ) ;
#859 = DIRECTION ( 'NONE',  ( -0.000000000000000000, -0.000000000000000000, -1.000000000000000000 ) ) ;
#860 = ORIENTED_EDGE ( 'NONE', *, *, #856, .F. ) ;
#861 = DIRECTION ( 'NONE',  ( -0.000000000000000000, -0.000000000000000000, -1.000000000000000000 ) ) ;
#862 = EDGE_LOOP ( 'NONE', ( #1120, #795 ) ) ;
#863 = ADVANCED_FACE ( 'NONE', ( #1044 ), #207, .F. ) ;
#864 = AXIS2_PLACEMENT_3D ( 'NONE', #519, #888, #197 ) ;
#865 = CARTESIAN_POINT ( 'NONE',  ( 70.00000000000001421, 10.00000000000000000, 0.000000000000000000 ) ) ;
#866 = ORIENTED_EDGE ( 'NONE', *, *, #271, .F. ) ;
#867 = CARTESIAN_POINT ( 'NONE',  ( 12.50000000000027001, 29.99999999999997158, 4.000000000000000000 ) ) ;
#868 = DIRECTION ( 'NONE',  ( -0.000000000000000000, -0.000000000000000000, -1.000000000000000000 ) ) ;
#869 = VECTOR ( 'NONE', #185, 1000.000000000000000 ) ;
#870 = DIRECTION ( 'NONE',  ( -1.000000000000000000, 0.000000000000000000, 0.000000000000000000 ) ) ;
#871 = ORIENTED_EDGE ( 'NONE', *, *, #1149, .T. ) ;
#872 = AXIS2_PLACEMENT_3D ( 'NONE', #557, #653, #270 ) ;
#873 = AXIS2_PLACEMENT_3D ( 'NONE', #718, #149, #1142 ) ;
#874 = CARTESIAN_POINT ( 'NONE',  ( 0.000000000000000000, 80.00000000000051159, 4.000000000000000000 ) ) ;
#875 = ORIENTED_EDGE ( 'NONE', *, *, #678, .T. ) ;
#876 = CARTESIAN_POINT ( 'NONE',  ( 52.50000000000002132, 9.999999999999991118, 4.000000000000000000 ) ) ;
#877 = ADVANCED_FACE ( 'NONE', ( #390 ), #44, .F. ) ;
#878 = ORIENTED_EDGE ( 'NONE', *, *, #856, .T. ) ;
#879 = ORIENTED_EDGE ( 'NONE', *, *, #565, .T. ) ;
#880 = DIRECTION ( 'NONE',  ( 0.000000000000000000, 0.000000000000000000, 1.000000000000000000 ) ) ;
#881 = FACE_BOUND ( 'NONE', #963, .T. ) ;
#882 = ORIENTED_EDGE ( 'NONE', *, *, #100, .F. ) ;
#883 = DIRECTION ( 'NONE',  ( -1.000000000000000000, 0.000000000000000000, 0.000000000000000000 ) ) ;
#884 = APPROVAL_ROLE ( '' ) ;
#885 = VERTEX_POINT ( 'NONE', #326 ) ;
#886 = DIRECTION ( 'NONE',  ( -1.000000000000000000, 0.000000000000000000, 0.000000000000000000 ) ) ;
#887 = DIRECTION ( 'NONE',  ( -1.000000000000000000, 0.000000000000000000, 0.000000000000000000 ) ) ;
#888 = DIRECTION ( 'NONE',  ( 0.000000000000000000, 0.000000000000000000, 1.000000000000000000 ) ) ;
#889 = CARTESIAN_POINT ( 'NONE',  ( 27.49999999999948841, 49.99999999999997158, 4.000000000000000000 ) ) ;
#890 = VECTOR ( 'NONE', #1137, 1000.000000000000000 ) ;
#891 = EDGE_CURVE ( 'NONE', #1133, #1157, #435, .T. ) ;
#892 = VECTOR ( 'NONE', #965, 1000.000000000000000 ) ;
#893 = CIRCLE ( 'NONE', #1127, 2.500000000000005773 ) ;
#894 = VERTEX_POINT ( 'NONE', #665 ) ;
#895 = AXIS2_PLACEMENT_3D ( 'NONE', #292, #177, #658 ) ;
#896 = FACE_BOUND ( 'NONE', #525, .T. ) ;
#897 = FACE_OUTER_BOUND ( 'NONE', #148, .T. ) ;
#898 = ORIENTED_EDGE ( 'NONE', *, *, #453, .F. ) ;
#899 = CARTESIAN_POINT ( 'NONE',  ( 10.00000000000026823, 29.99999999999997158, 4.000000000000000000 ) ) ;
#900 = DIRECTION ( 'NONE',  ( 0.000000000000000000, 0.000000000000000000, 1.000000000000000000 ) ) ;
#901 = ORIENTED_EDGE ( 'NONE', *, *, #1094, .T. ) ;
#902 = EDGE_LOOP ( 'NONE', ( #45, #305, #180, #521 ) ) ;
#903 = VERTEX_POINT ( 'NONE', #1019 ) ;
#904 = EDGE_CURVE ( 'NONE', #1102, #159, #771, .T. ) ;
#905 = ORIENTED_EDGE ( 'NONE', *, *, #214, .T. ) ;
#906 = VECTOR ( 'NONE', #861, 1000.000000000000000 ) ;
#907 = CARTESIAN_POINT ( 'NONE',  ( 10.00000000000050804, 49.99999999999997158, 0.000000000000000000 ) ) ;
#908 = DIRECTION ( 'NONE',  ( 0.000000000000000000, 0.000000000000000000, 1.000000000000000000 ) ) ;
#909 = EDGE_LOOP ( 'NONE', ( #905, #878, #744, #1144 ) ) ;
#910 = VECTOR ( 'NONE', #73, 1000.000000000000000 ) ;
#911 = EDGE_CURVE ( 'NONE', #1150, #451, #483, .T. ) ;
#912 = FACE_OUTER_BOUND ( 'NONE', #251, .T. ) ;
#913 = CARTESIAN_POINT ( 'NONE',  ( 10.00000000000026823, 29.99999999999997158, 4.000000000000000000 ) ) ;
#914 = CYLINDRICAL_SURFACE ( 'NONE', #854, 2.500000000000002220 ) ;
#915 = EDGE_CURVE ( 'NONE', #1135, #76, #395, .T. ) ;
#916 = PLANE ( 'NONE',  #77 ) ;
#917 = CARTESIAN_POINT ( 'NONE',  ( 32.49999999999927525, 69.99999999999998579, 4.000000000000000000 ) ) ;
#918 = DIRECTION ( 'NONE',  ( -1.000000000000000000, 0.000000000000000000, 0.000000000000000000 ) ) ;
#919 = ORIENTED_EDGE ( 'NONE', *, *, #316, .F. ) ;
#920 = CARTESIAN_POINT ( 'NONE',  ( 10.00000000000001421, 9.999999999999980460, 4.000000000000000000 ) ) ;
#921 = ADVANCED_FACE ( 'NONE', ( #851 ), #307, .F. ) ;
#922 = FACE_BOUND ( 'NONE', #152, .T. ) ;
#923 = VECTOR ( 'NONE', #167, 1000.000000000000000 ) ;
#924 = DIRECTION ( 'NONE',  ( 1.000000000000000000, 0.000000000000000000, 0.000000000000000000 ) ) ;
#925 = CIRCLE ( 'NONE', #60, 2.499999999999988454 ) ;
#926 = LINE ( 'NONE', #739, #735 ) ;
#927 = CARTESIAN_POINT ( 'NONE',  ( 27.49999999999925748, 69.99999999999998579, 4.000000000000000000 ) ) ;
#928 = FACE_OUTER_BOUND ( 'NONE', #208, .T. ) ;
#929 = ORIENTED_EDGE ( 'NONE', *, *, #951, .F. ) ;
#930 = CARTESIAN_POINT ( 'NONE',  ( 40.00000000000000000, 80.00000000000051159, 4.000000000000000000 ) ) ;
#931 = CARTESIAN_POINT ( 'NONE',  ( 7.500000000000508038, 49.99999999999997158, 4.000000000000000000 ) ) ;
#932 = DIRECTION ( 'NONE',  ( -0.000000000000000000, -0.000000000000000000, -1.000000000000000000 ) ) ;
#933 = FACE_BOUND ( 'NONE', #1051, .T. ) ;
#934 = CARTESIAN_POINT ( 'NONE',  ( 70.00000000000001421, 10.00000000000000000, 4.000000000000000000 ) ) ;
#935 = DIRECTION ( 'NONE',  ( -1.000000000000000000, 0.000000000000000000, 0.000000000000000000 ) ) ;
#936 = ORIENTED_EDGE ( 'NONE', *, *, #547, .T. ) ;
#937 = ORIENTED_EDGE ( 'NONE', *, *, #1156, .T. ) ;
#938 = DIRECTION ( 'NONE',  ( 1.000000000000000000, 0.000000000000000000, 0.000000000000000000 ) ) ;
#939 = DATE_AND_TIME ( #210, #983 ) ;
#940 = LINE ( 'NONE', #1119, #536 ) ;
#941 = ORIENTED_EDGE ( 'NONE', *, *, #556, .F. ) ;
#942 = AXIS2_PLACEMENT_3D ( 'NONE', #962, #311, #672 ) ;
#943 = DIRECTION ( 'NONE',  ( -0.000000000000000000, -0.000000000000000000, -1.000000000000000000 ) ) ;
#944 = CIRCLE ( 'NONE', #1091, 2.499999999999988454 ) ;
#945 = AXIS2_PLACEMENT_3D ( 'NONE', #913, #908, #567 ) ;
#946 = AXIS2_PLACEMENT_3D ( 'NONE', #102, #41, #666 ) ;
#947 = EDGE_CURVE ( 'NONE', #527, #267, #142, .T. ) ;
#948 = AXIS2_PLACEMENT_3D ( 'NONE', #814, #1004, #829 ) ;
#949 = DIRECTION ( 'NONE',  ( -1.000000000000000000, 0.000000000000000000, 0.000000000000000000 ) ) ;
#950 = ORIENTED_EDGE ( 'NONE', *, *, #818, .F. ) ;
#951 = EDGE_CURVE ( 'NONE', #14, #903, #844, .T. ) ;
#952 = VECTOR ( 'NONE', #461, 1000.000000000000000 ) ;
#953 = DIRECTION ( 'NONE',  ( 0.000000000000000000, 0.000000000000000000, 1.000000000000000000 ) ) ;
#954 = EDGE_LOOP ( 'NONE', ( #786, #269 ) ) ;
#955 = CYLINDRICAL_SURFACE ( 'NONE', #982, 2.500000000000002220 ) ;
#956 = ORIENTED_EDGE ( 'NONE', *, *, #168, .T. ) ;
#957 = DIRECTION ( 'NONE',  ( 0.000000000000000000, 0.000000000000000000, 1.000000000000000000 ) ) ;
#958 = EDGE_CURVE ( 'NONE', #155, #632, #421, .T. ) ;
#959 = DIRECTION ( 'NONE',  ( -0.000000000000000000, -0.000000000000000000, -1.000000000000000000 ) ) ;
#960 = ORIENTED_EDGE ( 'NONE', *, *, #1078, .T. ) ;
#961 = CARTESIAN_POINT ( 'NONE',  ( 52.50000000000002132, 29.99999999999999645, 4.000000000000000000 ) ) ;
#962 = CARTESIAN_POINT ( 'NONE',  ( 10.00000000000073719, 69.99999999999998579, 0.000000000000000000 ) ) ;
#963 = EDGE_LOOP ( 'NONE', ( #1082, #352 ) ) ;
#964 = AXIS2_PLACEMENT_3D ( 'NONE', #195, #378, #815 ) ;
#965 = DIRECTION ( 'NONE',  ( -0.000000000000000000, -0.000000000000000000, -1.000000000000000000 ) ) ;
#966 = VERTEX_POINT ( 'NONE', #366 ) ;
#967 = CC_DESIGN_PERSON_AND_ORGANIZATION_ASSIGNMENT ( #836, #760, ( #417 ) ) ;
#968 = CARTESIAN_POINT ( 'NONE',  ( 12.50000000000050981, 49.99999999999997158, 0.000000000000000000 ) ) ;
#969 = ORIENTED_EDGE ( 'NONE', *, *, #193, .F. ) ;
#970 = PERSON ( 'UNSPECIFIED', 'UNSPECIFIED', 'UNSPECIFIED', ('UNSPECIFIED'), ('UNSPECIFIED'), ('UNSPECIFIED') ) ;
#971 = ORIENTED_EDGE ( 'NONE', *, *, #40, .T. ) ;
#972 = DIRECTION ( 'NONE',  ( 1.000000000000000000, 0.000000000000000000, 0.000000000000000000 ) ) ;
#973 = CARTESIAN_POINT ( 'NONE',  ( 7.500000000000268230, 29.99999999999997158, 4.000000000000000000 ) ) ;
#974 = ORIENTED_EDGE ( 'NONE', *, *, #784, .T. ) ;
#975 = DIRECTION ( 'NONE',  ( 0.000000000000000000, 0.000000000000000000, 1.000000000000000000 ) ) ;
#976 = DIRECTION ( 'NONE',  ( -0.000000000000000000, -0.000000000000000000, -1.000000000000000000 ) ) ;
#977 = VERTEX_POINT ( 'NONE', #968 ) ;
#978 = ORIENTED_EDGE ( 'NONE', *, *, #66, .F. ) ;
#979 = EDGE_CURVE ( 'NONE', #1030, #527, #944, .T. ) ;
#980 = DIRECTION ( 'NONE',  ( -0.000000000000000000, -0.000000000000000000, -1.000000000000000000 ) ) ;
#981 = AXIS2_PLACEMENT_3D ( 'NONE', #306, #859, #949 ) ;
#982 = AXIS2_PLACEMENT_3D ( 'NONE', #240, #597, #752 ) ;
#983 = LOCAL_TIME ( 21, 55, 13.00000000000000000, #1028 ) ;
#984 = ORIENTED_EDGE ( 'NONE', *, *, #947, .T. ) ;
#985 = AXIS2_PLACEMENT_3D ( 'NONE', #644, #272, #455 ) ;
#986 = CARTESIAN_POINT ( 'NONE',  ( 50.00000000000001421, 9.999999999999991118, 4.000000000000000000 ) ) ;
#987 = UNCERTAINTY_MEASURE_WITH_UNIT (LENGTH_MEASURE( 1.000000000000000082E-05 ), #592, 'distance_accuracy_value', 'NONE');
#988 = EDGE_LOOP ( 'NONE', ( #1113, #345, #357, #138 ) ) ;
#989 = EDGE_CURVE ( 'NONE', #159, #1102, #925, .T. ) ;
#990 = EDGE_LOOP ( 'NONE', ( #231, #213 ) ) ;
#991 = CYLINDRICAL_SURFACE ( 'NONE', #985, 2.500000000000002220 ) ;
#992 = DIRECTION ( 'NONE',  ( 0.000000000000000000, 0.000000000000000000, -1.000000000000000000 ) ) ;
#993 = ORIENTED_EDGE ( 'NONE', *, *, #244, .F. ) ;
#994 = EDGE_CURVE ( 'NONE', #457, #1012, #507, .T. ) ;
#995 = DIRECTION ( 'NONE',  ( 0.7071067811865431318, -0.7071067811865517916, 0.000000000000000000 ) ) ;
#996 = FACE_OUTER_BOUND ( 'NONE', #275, .T. ) ;
#997 = VECTOR ( 'NONE', #43, 1000.000000000000000 ) ;
#998 = CARTESIAN_POINT ( 'NONE',  ( 70.00000000000001421, 29.99999999999998579, 0.000000000000000000 ) ) ;
#999 = CIRCLE ( 'NONE', #487, 2.499999999999988454 ) ;
#1000 = DIRECTION ( 'NONE',  ( 0.000000000000000000, -0.000000000000000000, -1.000000000000000000 ) ) ;
#1001 = CARTESIAN_POINT ( 'NONE',  ( 67.50000000000002842, 10.00000000000000000, 4.000000000000000000 ) ) ;
#1002 = VERTEX_POINT ( 'NONE', #796 ) ;
#1003 = FACE_OUTER_BOUND ( 'NONE', #609, .T. ) ;
#1004 = DIRECTION ( 'NONE',  ( 0.000000000000000000, 0.000000000000000000, 1.000000000000000000 ) ) ;
#1005 = CARTESIAN_POINT ( 'NONE',  ( 27.49999999999948841, 49.99999999999997158, 4.000000000000000000 ) ) ;
#1006 = AXIS2_PLACEMENT_3D ( 'NONE', #387, #748, #1103 ) ;
#1007 = EDGE_CURVE ( 'NONE', #406, #202, #489, .T. ) ;
#1008 = DIRECTION ( 'NONE',  ( 0.000000000000000000, 0.000000000000000000, 1.000000000000000000 ) ) ;
#1009 = LINE ( 'NONE', #273, #952 ) ;
#1010 = FACE_BOUND ( 'NONE', #954, .T. ) ;
#1011 = APPROVAL_ROLE ( '' ) ;
#1012 = VERTEX_POINT ( 'NONE', #1063 ) ;
#1013 = CARTESIAN_POINT ( 'NONE',  ( 27.49999999999948841, 49.99999999999997158, 0.000000000000000000 ) ) ;
#1014 = CARTESIAN_POINT ( 'NONE',  ( 29.99999999999926459, 69.99999999999998579, 4.000000000000000000 ) ) ;
#1015 = VECTOR ( 'NONE', #1136, 1000.000000000000000 ) ;
#1016 = DIRECTION ( 'NONE',  ( -1.000000000000000000, 0.000000000000000000, -0.000000000000000000 ) ) ;
#1017 = PERSON_AND_ORGANIZATION_ROLE ( 'creator' ) ;
#1018 = ADVANCED_FACE ( 'NONE', ( #156 ), #605, .F. ) ;
#1019 = CARTESIAN_POINT ( 'NONE',  ( 12.50000000000074252, 69.99999999999998579, 0.000000000000000000 ) ) ;
#1020 = ORIENTED_EDGE ( 'NONE', *, *, #911, .T. ) ;
#1021 = AXIS2_PLACEMENT_3D ( 'NONE', #113, #310, #317 ) ;
#1022 = CARTESIAN_POINT ( 'NONE',  ( 10.00000000000001421, 9.999999999999980460, 4.000000000000000000 ) ) ;
#1023 = CARTESIAN_POINT ( 'NONE',  ( 72.50000000000001421, 29.99999999999998579, 4.000000000000000000 ) ) ;
#1024 = CARTESIAN_POINT ( 'NONE',  ( 67.50000000000002842, 29.99999999999998579, 4.000000000000000000 ) ) ;
#1025 = ORIENTED_EDGE ( 'NONE', *, *, #520, .F. ) ;
#1026 = ADVANCED_FACE ( 'NONE', ( #625 ), #65, .F. ) ;
#1027 = DATE_AND_TIME ( #673, #222 ) ;
#1028 = COORDINATED_UNIVERSAL_TIME_OFFSET ( 8, 0, .BEHIND. ) ;
#1029 = ORIENTED_EDGE ( 'NONE', *, *, #354, .T. ) ;
#1030 = VERTEX_POINT ( 'NONE', #596 ) ;
#1031 = CIRCLE ( 'NONE', #105, 2.500000000000002220 ) ;
#1032 = VECTOR ( 'NONE', #766, 1000.000000000000000 ) ;
#1033 = CARTESIAN_POINT ( 'NONE',  ( 10.00000000000050804, 49.99999999999997158, 4.000000000000000000 ) ) ;
#1034 = CARTESIAN_POINT ( 'NONE',  ( 47.50000000000001421, 29.99999999999999645, 4.000000000000000000 ) ) ;
#1035 = CARTESIAN_POINT ( 'NONE',  ( 32.49999999999949551, 49.99999999999997158, 4.000000000000000000 ) ) ;
#1036 = AXIS2_PLACEMENT_3D ( 'NONE', #808, #96, #460 ) ;
#1037 = CARTESIAN_POINT ( 'NONE',  ( 32.50000000000001421, 30.00000000000000000, 4.000000000000000000 ) ) ;
#1038 = EDGE_LOOP ( 'NONE', ( #74, #402 ) ) ;
#1039 = FACE_OUTER_BOUND ( 'NONE', #530, .T. ) ;
#1040 = ORIENTED_EDGE ( 'NONE', *, *, #826, .F. ) ;
#1041 = ORIENTED_EDGE ( 'NONE', *, *, #727, .T. ) ;
#1042 = EDGE_CURVE ( 'NONE', #533, #38, #163, .T. ) ;
#1043 = CARTESIAN_POINT ( 'NONE',  ( 7.500000000000013323, 9.999999999999980460, 0.000000000000000000 ) ) ;
#1044 = FACE_OUTER_BOUND ( 'NONE', #988, .T. ) ;
#1045 = LINE ( 'NONE', #577, #642 ) ;
#1046 = CARTESIAN_POINT ( 'NONE',  ( 80.00000000000000000, -4.898587196589411448E-15, 4.000000000000000000 ) ) ;
#1047 = CARTESIAN_POINT ( 'NONE',  ( 72.50000000000001421, 10.00000000000000000, 4.000000000000000000 ) ) ;
#1048 = CARTESIAN_POINT ( 'NONE',  ( 32.50000000000001421, 9.999999999999989342, 4.000000000000000000 ) ) ;
#1049 = CC_DESIGN_DATE_AND_TIME_ASSIGNMENT ( #939, #667, ( #671 ) ) ;
#1050 = CARTESIAN_POINT ( 'NONE',  ( 12.50000000000074252, 69.99999999999998579, 4.000000000000000000 ) ) ;
#1051 = EDGE_LOOP ( 'NONE', ( #526, #169 ) ) ;
#1052 = DIRECTION ( 'NONE',  ( 1.000000000000000000, 0.000000000000000000, 0.000000000000000000 ) ) ;
#1053 = AXIS2_PLACEMENT_3D ( 'NONE', #828, #838, #24 ) ;
#1054 = CARTESIAN_POINT ( 'NONE',  ( 80.00000000000000000, -4.898587196589411448E-15, 0.000000000000000000 ) ) ;
#1055 = AXIS2_PLACEMENT_3D ( 'NONE', #759, #847, #36 ) ;
#1056 = ORIENTED_EDGE ( 'NONE', *, *, #119, .T. ) ;
#1057 = EDGE_CURVE ( 'NONE', #427, #476, #524, .T. ) ;
#1058 = CARTESIAN_POINT ( 'NONE',  ( 12.50000000000027001, 29.99999999999997158, 4.000000000000000000 ) ) ;
#1059 = CARTESIAN_POINT ( 'NONE',  ( 12.50000000000001421, 9.999999999999980460, 0.000000000000000000 ) ) ;
#1060 = ORIENTED_EDGE ( 'NONE', *, *, #253, .F. ) ;
#1061 = VERTEX_POINT ( 'NONE', #1154 ) ;
#1062 = CLOSED_SHELL ( 'NONE', ( #794, #762, #499, #695, #419, #863, #719, #2, #1104, #713, #740, #640, #604, #749, #123, #95, #179, #225, #72, #1111, #330, #108, #634, #1018, #610, #1026, #572, #877, #578, #514, #921 ) ) ;
#1063 = CARTESIAN_POINT ( 'NONE',  ( 32.49999999999949551, 49.99999999999997158, 0.000000000000000000 ) ) ;
#1064 = DIRECTION ( 'NONE',  ( 0.000000000000000000, 0.000000000000000000, 1.000000000000000000 ) ) ;
#1065 = EDGE_CURVE ( 'NONE', #633, #129, #441, .T. ) ;
#1066 = ORIENTED_EDGE ( 'NONE', *, *, #439, .T. ) ;
#1067 = ORIENTED_EDGE ( 'NONE', *, *, #629, .T. ) ;
#1068 = ORIENTED_EDGE ( 'NONE', *, *, #35, .F. ) ;
#1069 = DIRECTION ( 'NONE',  ( -0.000000000000000000, -0.000000000000000000, -1.000000000000000000 ) ) ;
#1070 = DIRECTION ( 'NONE',  ( -1.000000000000000000, 6.938893903907228378E-16, 0.000000000000000000 ) ) ;
#1071 = CYLINDRICAL_SURFACE ( 'NONE', #1107, 2.500000000000005773 ) ;
#1072 = CIRCLE ( 'NONE', #942, 2.500000000000005773 ) ;
#1073 = ORIENTED_EDGE ( 'NONE', *, *, #994, .F. ) ;
#1074 = CC_DESIGN_APPROVAL ( #300, ( #417 ) ) ;
#1075 = EDGE_LOOP ( 'NONE', ( #806, #852 ) ) ;
#1076 = DIRECTION ( 'NONE',  ( 1.000000000000000000, 0.000000000000000000, 0.000000000000000000 ) ) ;
#1077 = ORIENTED_EDGE ( 'NONE', *, *, #769, .T. ) ;
#1078 = EDGE_CURVE ( 'NONE', #675, #221, #428, .T. ) ;
#1079 = FACE_OUTER_BOUND ( 'NONE', #1106, .T. ) ;
#1080 = DIRECTION ( 'NONE',  ( -1.000000000000000000, 6.123233995736763571E-17, 0.000000000000000000 ) ) ;
#1081 = ORIENTED_EDGE ( 'NONE', *, *, #915, .F. ) ;
#1082 = ORIENTED_EDGE ( 'NONE', *, *, #556, .T. ) ;
#1083 = DIRECTION ( 'NONE',  ( 1.000000000000000000, 0.000000000000000000, 0.000000000000000000 ) ) ;
#1084 = DIRECTION ( 'NONE',  ( 0.000000000000000000, 0.000000000000000000, 1.000000000000000000 ) ) ;
#1085 = CC_DESIGN_PERSON_AND_ORGANIZATION_ASSIGNMENT ( #493, #674, ( #671 ) ) ;
#1086 = FACE_BOUND ( 'NONE', #500, .T. ) ;
#1087 = DIRECTION ( 'NONE',  ( 0.000000000000000000, 0.000000000000000000, 1.000000000000000000 ) ) ;
#1088 = ORIENTED_EDGE ( 'NONE', *, *, #958, .F. ) ;
#1089 = CIRCLE ( 'NONE', #600, 2.500000000000000444 ) ;
#1090 = FACE_OUTER_BOUND ( 'NONE', #54, .T. ) ;
#1091 = AXIS2_PLACEMENT_3D ( 'NONE', #328, #145, #349 ) ;
#1092 = AXIS2_PLACEMENT_3D ( 'NONE', #1151, #445, #363 ) ;
#1093 = DIRECTION ( 'NONE',  ( 0.000000000000000000, 0.000000000000000000, 1.000000000000000000 ) ) ;
#1094 = EDGE_CURVE ( 'NONE', #803, #628, #423, .T. ) ;
#1095 = CARTESIAN_POINT ( 'NONE',  ( 12.50000000000027001, 29.99999999999997158, 0.000000000000000000 ) ) ;
#1096 = DIRECTION ( 'NONE',  ( 1.000000000000000000, 0.000000000000000000, 0.000000000000000000 ) ) ;
#1097 = AXIS2_PLACEMENT_3D ( 'NONE', #184, #545, #93 ) ;
#1098 = DATE_TIME_ROLE ( 'classification_date' ) ;
#1099 = ORIENTED_EDGE ( 'NONE', *, *, #130, .F. ) ;
#1100 = PLANE ( 'NONE',  #792 ) ;
#1101 = DIRECTION ( 'NONE',  ( 0.000000000000000000, 0.000000000000000000, 1.000000000000000000 ) ) ;
#1102 = VERTEX_POINT ( 'NONE', #80 ) ;
#1103 = DIRECTION ( 'NONE',  ( 1.000000000000000000, 0.000000000000000000, 0.000000000000000000 ) ) ;
#1104 = ADVANCED_FACE ( 'NONE', ( #697 ), #787, .F. ) ;
#1105 = CYLINDRICAL_SURFACE ( 'NONE', #681, 2.499999999999988454 ) ;
#1106 = EDGE_LOOP ( 'NONE', ( #118, #268, #454, #866 ) ) ;
#1107 = AXIS2_PLACEMENT_3D ( 'NONE', #708, #694, #798 ) ;
#1108 = AXIS2_PLACEMENT_3D ( 'NONE', #688, #133, #220 ) ;
#1109 = FACE_BOUND ( 'NONE', #140, .T. ) ;
#1110 = COORDINATED_UNIVERSAL_TIME_OFFSET ( 8, 0, .BEHIND. ) ;
#1111 = ADVANCED_FACE ( 'NONE', ( #341 ), #706, .F. ) ;
#1112 = CARTESIAN_POINT ( 'NONE',  ( 27.50000000000001066, 9.999999999999989342, 4.000000000000000000 ) ) ;
#1113 = ORIENTED_EDGE ( 'NONE', *, *, #137, .T. ) ;
#1114 = CARTESIAN_POINT ( 'NONE',  ( 32.50000000000001421, 9.999999999999989342, 0.000000000000000000 ) ) ;
#1115 = CARTESIAN_POINT ( 'NONE',  ( 80.00000000000002842, 39.99999999999999289, 0.000000000000000000 ) ) ;
#1116 = CIRCLE ( 'NONE', #98, 2.500000000000002220 ) ;
#1117 = CARTESIAN_POINT ( 'NONE',  ( 52.50000000000002132, 29.99999999999999645, 4.000000000000000000 ) ) ;
#1118 = CALENDAR_DATE ( 2024, 30, 12 ) ;
#1119 = CARTESIAN_POINT ( 'NONE',  ( 12.50000000000050981, 49.99999999999997158, 4.000000000000000000 ) ) ;
#1120 = ORIENTED_EDGE ( 'NONE', *, *, #276, .F. ) ;
#1121 = EDGE_CURVE ( 'NONE', #327, #502, #1145, .T. ) ;
#1122 = CALENDAR_DATE ( 2024, 30, 12 ) ;
#1123 = DIRECTION ( 'NONE',  ( -1.000000000000000000, 0.000000000000000000, 0.000000000000000000 ) ) ;
#1124 = ORIENTED_EDGE ( 'NONE', *, *, #100, .T. ) ;
#1125 = AXIS2_PLACEMENT_3D ( 'NONE', #934, #211, #687 ) ;
#1126 = EDGE_CURVE ( 'NONE', #632, #1002, #56, .T. ) ;
#1127 = AXIS2_PLACEMENT_3D ( 'NONE', #394, #568, #298 ) ;
#1128 = ORIENTED_EDGE ( 'NONE', *, *, #200, .F. ) ;
#1129 = CARTESIAN_POINT ( 'NONE',  ( 27.50000000000001066, 30.00000000000000000, 4.000000000000000000 ) ) ;
#1130 = EDGE_LOOP ( 'NONE', ( #830, #90 ) ) ;
#1131 = CARTESIAN_POINT ( 'NONE',  ( 0.000000000000000000, 80.00000000000051159, 0.000000000000000000 ) ) ;
#1132 = ORIENTED_EDGE ( 'NONE', *, *, #1126, .T. ) ;
#1133 = VERTEX_POINT ( 'NONE', #1037 ) ;
#1134 = LINE ( 'NONE', #215, #910 ) ;
#1135 = VERTEX_POINT ( 'NONE', #1043 ) ;
#1136 = DIRECTION ( 'NONE',  ( -0.000000000000000000, -0.000000000000000000, -1.000000000000000000 ) ) ;
#1137 = DIRECTION ( 'NONE',  ( -0.000000000000000000, -0.000000000000000000, -1.000000000000000000 ) ) ;
#1138 = DIRECTION ( 'NONE',  ( -1.000000000000000000, 0.000000000000000000, 0.000000000000000000 ) ) ;
#1139 = DIRECTION ( 'NONE',  ( -1.000000000000000000, 0.000000000000000000, 0.000000000000000000 ) ) ;
#1140 = EDGE_CURVE ( 'NONE', #427, #233, #543, .T. ) ;
#1141 = ORIENTED_EDGE ( 'NONE', *, *, #10, .F. ) ;
#1142 = DIRECTION ( 'NONE',  ( -1.000000000000000000, 0.000000000000000000, 0.000000000000000000 ) ) ;
#1143 = VECTOR ( 'NONE', #959, 1000.000000000000000 ) ;
#1144 = ORIENTED_EDGE ( 'NONE', *, *, #381, .F. ) ;
#1145 = CIRCLE ( 'NONE', #601, 2.499999999999988454 ) ;
#1146 = FACE_OUTER_BOUND ( 'NONE', #700, .T. ) ;
#1147 = COORDINATED_UNIVERSAL_TIME_OFFSET ( 8, 0, .BEHIND. ) ;
#1148 =( GEOMETRIC_REPRESENTATION_CONTEXT ( 3 ) GLOBAL_UNCERTAINTY_ASSIGNED_CONTEXT ( ( #987 ) ) GLOBAL_UNIT_ASSIGNED_CONTEXT ( ( #592, #141, #226 ) ) REPRESENTATION_CONTEXT ( 'NONE', 'WORKASPACE' ) );
#1149 = EDGE_CURVE ( 'NONE', #539, #409, #641, .T. ) ;
#1150 = VERTEX_POINT ( 'NONE', #581 ) ;
#1151 = CARTESIAN_POINT ( 'NONE',  ( 50.00000000000001421, 29.99999999999999645, 4.000000000000000000 ) ) ;
#1152 = EDGE_LOOP ( 'NONE', ( #797, #319 ) ) ;
#1153 = CIRCLE ( 'NONE', #459, 2.500000000000002220 ) ;
#1154 = CARTESIAN_POINT ( 'NONE',  ( 80.00000000000000000, -4.898587196589411448E-15, 4.000000000000000000 ) ) ;
#1155 = CARTESIAN_POINT ( 'NONE',  ( 80.00000000000002842, 39.99999999999999289, 4.000000000000000000 ) ) ;
#1156 = EDGE_CURVE ( 'NONE', #632, #611, #1134, .T. ) ;
#1157 = VERTEX_POINT ( 'NONE', #1129 ) ;
#1158 = CARTESIAN_POINT ( 'NONE',  ( 27.50000000000001066, 30.00000000000000000, 0.000000000000000000 ) ) ;
ENDSEC;
END-ISO-10303-21;
